<svg id="e3cb5391-d691-4e5b-95bb-35ff2bf8c043" data-name="Layer 1" xmlns="http://www.w3.org/2000/svg" viewBox="0 0 1920 800"><defs><style>.ae20daa0-bb8d-4a2f-9d2b-e75ae74716d4{fill:#2d2c2a;}.a1f59a71-8943-4847-867d-133f50126f0b{fill:#2066ba;}.b9a0fd98-8f0a-4f6e-9fa8-46d72a9e9a98{fill:#ce2a39;}.ea745f85-e165-4571-98fb-edd420565001{fill:#ffc31f;}</style></defs><path class="ae20daa0-bb8d-4a2f-9d2b-e75ae74716d4" d="M731.89,631.5c-.68.63-1.43,1.42-2.27,2.08a4,4,0,0,1-1.75.86c-2.54.45-7.14-2.26-8.26-4.7A9,9,0,0,0,718,627.1c-1.31-1.31-2.21-2.62-2-4.61a3.92,3.92,0,0,0-1.11-3.74c-.62-.59-.58-2-.6-3.09-.07-3.57,0-7.14-.05-10.71,0-1.85.48-3.78-1.26-5.36-.53-.47-.36-1.81-.36-2.76q0-21.44,0-42.87c0-.68-.22-1.58.12-2,2.37-3,1.27-6.54,1.53-9.86.11-1.3-.26-2.62,1.09-3.75.64-.54.63-2,.66-3.06.08-2.89,0-5.77.06-8.66.07-2.07-.74-4.37,1.52-6,.44-.32.28-1.56.29-2.38,0-3,0-6,0-9.06,0-2-.42-4.06,1.27-5.81.53-.54.34-1.83.35-2.78,0-3,0-6.05,0-9.07,0-1.73-.17-3.39,1.19-5,.79-.95.4-2.86.57-4.34.24-2.07-.74-4.37,1.39-6.1.45-.37.28-1.55.34-2.36.14-2.25-.62-4.68,1.44-6.53.24-.21.2-.78.19-1.19-.11-4.62,2.58-8.43,3.71-12.69,2.55-1.55,1.29-4.59,2.8-6.87,2.63-4,5.39-7.31,9.72-9.39a31.37,31.37,0,0,1,12-3.35c2.59-.15,4.28,1.32,6.37,2a16.27,16.27,0,0,1,8.94,6.78,32.24,32.24,0,0,0,5.57,7.15,1,1,0,0,1,.34.71c-.67,3.62,2.29,5.13,4.11,7.36a26.07,26.07,0,0,1,2.59,4.37c1.11,2.09,2.15,4.22,3.22,6.34.06.12.28.21.27.3-.82,6,4.79,9.38,6,15a10.57,10.57,0,0,0,2-1.77c1.54-2.36,3-4.81,4.46-7.2a11.27,11.27,0,0,1,1.43-1.85c4.34-4.44,8.47-9.1,13.13-13.17a32.46,32.46,0,0,1,10.48-6.55,11,11,0,0,1,9.74.81c3.12,2,6.84,3.07,11.21,4.93,1.64,3.47,3.58,8.06,6,12.42,1.4,2.56,1.77,5.38,2.86,8,1.29,3.08,1.35,6.47,2,9.66.46,2.26,1.48,4.47,1.39,6.91a4.18,4.18,0,0,1-1.43,3.53c-3.5,3.09-2.9,9.48,3.15,10.54v17.6c0,2.75,0,5.49,0,8.24,0,1.7-.47,3.49,1.21,4.93.53.46.39,1.81.4,2.75,0,4.12,0,8.24,0,12.36,0,2-.18,3.8,1.25,5.76.9,1.23.43,4-.28,5.78a15.26,15.26,0,0,0,.25,11.1c1.32,2.71,2.82,5.39,2.34,8.74-.37,2.55.11,5.22-.12,7.81-.29,3.42.91,6.22,2.76,8.93a5.25,5.25,0,0,1,.75,2.62,51,51,0,0,1,0,6.18,6,6,0,0,1-1,3,5.59,5.59,0,0,0-.42,6.18,8.7,8.7,0,0,1,1.42,5.24,7.26,7.26,0,0,0,.06,1.24c.69,3,.26,4.49-1.59,6.77-1.07,1.33-1.9,2.85-3,4.48a2.51,2.51,0,0,1-.93.13c-3.18-.56-5.44.82-7.26,3.27-1,1.37-2.44,1.65-4.1,2-2.4.51-4.57,2.24-7.22,1.54-5-1.32-10.23-2-13.87-6.33-1-1.12-2.1-2.09-3.15-3.14-.48-.47-1.43-1.05-1.36-1.42.73-3.9-3.46-5.58-3.92-9-.24-1.75-1.33-3.37-1.65-5.11s-.93-3.41-1.17-4.93c-.54-3.3-3.07-6.07-2.32-9.67.25-1.21.39-2.65-1.1-3.68-.55-.38-.5-1.76-.53-2.69-.07-2.19,0-4.39,0-6.59,0-.82.28-1.83-.09-2.44-2.83-4.71-1.07-9.85-1.55-14.77-.16-1.58.25-3.16-1.21-4.57-.68-.66-.49-2.32-.5-3.53,0-9.2,0-18.41,0-27.61,0-1.33-.11-2.66-.18-4.24a4,4,0,0,0-3.22,2.43c-1.22,2.91-3.24,5.33-4.7,8-2,3.58-4.83,6-7.48,8.83-.43.46-1.08,1.13-1.54,1.07-2.91-.4-4.45,1.52-6,3.36a5.09,5.09,0,0,1-4.58,1.9c-3.14-.18-6.3,0-9.62,0-.8-2.52-1.45-5.14-4.7-5.23a36.25,36.25,0,0,1-2.46-5.68c-.45-1.76.35-3.82-1.53-5.24-.31-.23-.34-1-.26-1.56.58-3.55-2.44-6.09-2.16-10.5-1.6,1.71-3.19,2.64-3.2,3.59,0,2.57-2.14,2.05-3.6,2.85,1.08,1.84,2.17,3.56,3.1,5.36a2.58,2.58,0,0,1,.21,2c-2,4-1.4,8.84-4,12.66a22.13,22.13,0,0,0-2.49,4.31c-.28.71.24,1.74.41,2.63.1.52.47,1.34.27,1.52-1,.92-.51,1.36.12,2.3a3.57,3.57,0,0,1-.58,5.07c-1.66,1.53-3.55,3.38-.7,5.62-.15,3.85,1.43,7.82-.91,11.51a20.86,20.86,0,0,0-2,3.86,3.54,3.54,0,0,0,0,2.38c2,4.85,1.87,6.61.12,11.29-.64,1.71-.41,3.79-.35,5.69.08,2.9-.13,5.36-2.6,7.63-1.37,1.27-1.71,3.79-3.62,5a31,31,0,0,1-5.07,3C734.75,632.8,733.46,632,731.89,631.5Z"/><path class="ae20daa0-bb8d-4a2f-9d2b-e75ae74716d4" d="M1656.31,386.93c.21-.75,1.72-1.19.2-3-1.28-1.52-1.2-4.37-2.16-6.59-1.59-3.69-1.13-8-2.16-11.66-1.13-4-.87-7.93-1.42-11.85-.26-1.87-1.41-3.67-2.35-5.39-1.68-3.08-1.59-5.67.89-7.91a4.08,4.08,0,0,0,1.59-3.46c-.08-3,.27-6.08-.1-9.06-.4-3.17.89-5.85,2.29-8.24a8.78,8.78,0,0,0,1.16-4.09c.22-2.62-.64-5.34,1.47-7.79.62-.72,0-2.84-.54-4.15a36,36,0,0,0-2.46-4.34c-.18-.33-.27-1-.09-1.18,1.95-1.57,1.19-4,2-5.92a13.65,13.65,0,0,0,.12-11.37c-.69-1.66-.45-3.75-.51-5.64-.08-2.84-.46-5.76,2.57-7.67a3.13,3.13,0,0,0,.72-2.58c-.4-2.71,1.36-5.76-1.2-8.16-.12-.11-.08-.54,0-.74,2.63-4.61.73-9.59,1.1-14.38.07-1-1.1-2.43-2.08-3.18-1.29-1-1.61-2.23-.65-3.05,1.46-1.23,1.18-2.66,1.2-4.1,0-4.26-.12-8.52,0-12.77s-1.27-8-3.06-11.69a4.42,4.42,0,0,1,.35-4.63,6.37,6.37,0,0,0-.28-7.44,13.5,13.5,0,0,0,1.18-3.35,20.61,20.61,0,0,0-2.54-11.84,22.84,22.84,0,0,1-2.31-15.56c.27-1.38,1.85-2.51,3-3.94l-1.39-1.93c1.6-1.28,3-3.34,4.82-3.66a19.78,19.78,0,0,0,7.12-3c5-3.07,10.42-2.29,15.8-2.16,2.11,2.06,4.8,1.3,7.3,1.62a15.14,15.14,0,0,1,4,1.63c3.89,1.76,8.18,3,11.54,5.46,3.79,2.8,7.93,5.29,11.06,9a65.16,65.16,0,0,0,8.73,8.92c2.88,2.35,4,5.82,6.35,8.46s3.91,5.93,5.77,9c.68,1.1,1.09,2.36,1.82,3.42a125.48,125.48,0,0,1,7.54,12.67c1,1.95.45,4.42,2.12,6.31,1,1.11,1.07,2.95,2,4.19,2.31,3.29,1.86,7.82,5,10.72.16.15.15.52.15.79-.06,4.08,1.62,7.63,3.28,11.21a7.21,7.21,0,0,1,.2,2.44c.13,2.12-.09,4.11,1.3,6.2,1,1.47.28,4,.43,6s-.62,4,1.33,5.73c.59.52.36,2.08.36,3.16q0,9.69,0,19.37c0,1.6.07,3.07-1.17,4.57-.78.95-.39,2.87-.54,4.35-.21,2.08.71,4.38-1.38,6.1-.39.32-.28,1.29-.32,2-.14,2.39.56,4.94-1.47,7-.23.23-.15.79-.18,1.19-.14,1.85.3,3.69-1.37,5.33-1.25,1.23,0,3.48-1.78,5.17-1.29,1.25-.39,4.11-2,5.92a12.72,12.72,0,0,0-1.88,3.88c-1.18,2.89-2.28,5.8-3.41,8.71-.15.37-.11.92-.37,1.13-3.66,3-4.53,7.5-6.59,11.37a65.37,65.37,0,0,1-4.47,6.47c-1.35,1.93-2.61,3.92-4,5.78s-3.74,2.7-3.79,5.42c0,.5-.9,1-1.34,1.46-2,2.29-4.47,4-5.62,7.18-.78,2.17-3.21,3.9-5.19,5.45-3.23,2.52-5.3,6.42-9.55,7.76-1,.32-1.63,1.75-2.54,2.54a16.16,16.16,0,0,1-7.32,3.69c-2.44.53-5,1-7.12,2.24-2.79,1.64-5.11,1.94-7.66-.16a2,2,0,0,0-1.56-.31c-3.69,1-6.74-1.38-10.1-2a6.73,6.73,0,0,1-4.44-3.81C1660.68,390.9,1657.87,389.6,1656.31,386.93Zm36-45.49h1a4.4,4.4,0,0,0,.41-1.39c-.12-2.78.78-4.63,3.79-5.3a4.06,4.06,0,0,0,2.68-2.24c.62-2.42,3-4.35,2.1-7.19-.6-1.87.9-2.84,1.91-3.72a22.81,22.81,0,0,0,5.93-7.36c2.21-4.67,4.5-9.26,4.25-14.6-.2-4.22,0-8.27,3-11.72a3.15,3.15,0,0,0-.17-3c-1.72-2.41-1.56-4.6-.08-7a5.39,5.39,0,0,0,.68-2.65c.07-4,0-8,0-11.95,0-.68.11-1.7-.27-2-1.93-1.41-1.28-3.39-1.47-5.22a5.69,5.69,0,0,0-.72-2.22,89.14,89.14,0,0,0-5-8.45c-2.08-2.92-1.28-5.44.33-8.06a7.6,7.6,0,0,0-.52-.61c-2.05-2.15-4.87-4-6-6.52a67,67,0,0,0-10.91-17.51c-.5-.57-.68-1.42-1.18-2-1.91-2.23-3.6-4.83-6-6.45-1.4-1-3.89-.36-6.33-.49.09,2-.43,4,.33,4.76,1.75,1.82,1.21,3.8,1.3,5.76.1,2.47-.8,5.45.28,7.3,1.93,3.31,1,6.58,1.39,9.86.12,1.07-.08,2.57.54,3.11,1.56,1.36,1.09,3,1.18,4.54s-.57,3.75.23,4.85c2.45,3.41,1.19,7.12,1.55,10.68.12,1.22-.27,2.86.38,3.59,1.74,1.93,1.06,4.11,1.29,6.22.41,3.8-1.26,7.92,1.72,11.37.28.33.11,1.07.11,1.62,0,8.37,0,16.75,0,25.13,0,.78,0,2-.52,2.27-1.63,1.08-1.29,2.62-1.29,4.07q0,13.8,0,27.6c0,1,.24,2.08.41,3.53l2.78-1.65Z"/><path class="ae20daa0-bb8d-4a2f-9d2b-e75ae74716d4" d="M795.87,182.46c1,2.43,1.36,4.72,2.65,6.22,3.65,4.23,3.71,10.32,8,14.29,1.44,1.34,1.54,4.07,2.37,6.13,1.11,2.77,1.8,6,3.65,8.14,2.33,2.73,1.4,4.69.15,7.42l2.72-1.21c0,.89.32,2-.05,2.32-1.74,1.64-2.1,3.12-.07,4.74-.23,3.53,2.51,6.32,2.19,10.05a7,7,0,0,0,4.94,7.4,24.91,24.91,0,0,0,3.35,12c.41.76.1,1.9.3,2.82.28,1.27.71,2.5,1.11,3.74.12.38.47.72.49,1.08a36.6,36.6,0,0,0,.16,4.93c.28,1.51,1.3,2.88,1.58,4.38.35,1.94-.35,4.08,1.52,5.69.37.31.28,1.33.17,2-1.13,6.93,1.8,7.82,4.28,14.13.13.35.74.66.69.91-.76,4.17,2,7.83,1.78,11.81a15.23,15.23,0,0,0,2.36,9.11,9.92,9.92,0,0,1,1.21,4.14,21,21,0,0,0,1.22,3.69c.13.38.53.75.48,1.09-.71,5.33,2.89,10.08,2,15.5a10.72,10.72,0,0,0,1.07,6.23c.93,2.06.49,5.15-.32,7.45-.92,2.59-1.27,4.77.08,7.21a6.32,6.32,0,0,1,0,6.55,4.08,4.08,0,0,0-.79,2.21c.35,3-.71,5.09-3.22,6.87-2,1.42-3.3,3.58-5.69,4.83a15.62,15.62,0,0,1-7.26,1.6c-3.72.08-6.6-1.63-9.24-3.88-1.62-1.38-3.5-2.78-4.4-4.6-2.05-4.16-6.29-7.19-6.29-12.44,0-1-1.12-2-1.59-3.07a48.37,48.37,0,0,1-3.55-10.68c-.46-2.48-2-4.78-3-7.16a1.57,1.57,0,0,1-.22-.78c.71-3.69-2.24-6.58-2-10.62-1.32.22-2.57.06-3.27.6-2.39,1.87-4.55,1.53-7,.16a9.77,9.77,0,0,0-8.3-.2c-2.64,1-4.88,3.18-7.55,4a14,14,0,0,1-7.58.19c-2.38-.7-4.36-2.73-6.67-4.27L754,337c-.16.66-.11,1.85-.67,2.42-.9.9-1.72,1.38-.22,2.45.16.11-1,1.69-.72,2.08,1.85,2.8-.49,5.1-.93,7.51s-2.13,4.72-3.35,7c-.72,1.35-1.85,2.52-2.35,3.93-.64,1.8-1.16,3.86-3,4.47-3.86,1.28-7.13,4.92-11.62,3.61-3.42-1-7.12-1.16-9.94-4.27-2.23-2.46-4.52-4.77-6.1-7.71-.13-.23-.38-.43-.42-.67-.68-3.79-1.56-7.56-1.93-11.38a95.62,95.62,0,0,1,0-10.3c0-1.86-.17-3.62,1.26-5.39.85-1,.36-3.15.51-4.78.19-1.93-.72-4.13,1.53-5.59.37-.24.33-1.29.3-2a21.3,21.3,0,0,1,3.17-11.79,1.57,1.57,0,0,0,.2-.79c0-4.18,2-7.77,3.13-11.62a33.08,33.08,0,0,1,3.5-8.27c.39-.62.18-1.61.27-2.42.16-1.42-.51-3,1.19-4.09.4-.25.39-1.25.44-1.92.12-1.85-.35-3.79,1.44-5.28.44-.38.25-1.57.29-2.38.06-1.49-.26-3.05,1.24-4.13a1.36,1.36,0,0,0,.41-1.1c-.79-5.2,2.76-9.88,1.77-15.13a5.12,5.12,0,0,1,1.21-4.56c.73-.83.38-2.61.52-4,.32-2.86-1-6,1.61-8.49.37-.36.19-1.32.24-2,.2-2.93-.26-5.79,1.37-8.71,1-1.8.23-4.57.3-6.91,0-1.47-.34-3.06,1.19-4.13a1.19,1.19,0,0,0,.39-.69c.65-3.38,1.15-6.79,2-10.13a46.51,46.51,0,0,1,3.93-10.93c2.06-3.91,4.36-7.73,6-11.8a14.16,14.16,0,0,1,2.66-3.82c1-1.2,1.88-2.51,2.85-3.75a5.6,5.6,0,0,1,1.28-1.29c.55-.35,1.32-.38,1.84-.76,4.55-3.42,7.95-4.9,13.2-4.42,4.18.38,8.53,1,11.39,4.86.87,1.17,2.17,2,3.1,3.16a4.8,4.8,0,0,1,1.34,2.67c0,2.45,1.71,4.07,2.62,6C793,181.14,794.83,181.75,795.87,182.46ZM768.24,298.57a17.5,17.5,0,0,1,3-1.41c3.44-.84,6.76-2.49,10.48-1.82a1.54,1.54,0,0,0,1.13-.38c2.84-2.64,5.6-1.16,9.07.51-.4-1.57-.63-2.64-.94-3.69a26.86,26.86,0,0,1-.88-2.57c-.63-3.37-1.18-6.76-1.77-10.14-.05-.26-.13-.63-.31-.73-1.72-.93-1.19-2.56-1.32-4-.09-.94.07-2.3-.47-2.72-1.5-1.17-1.13-2.65-1.25-4.11-.07-.94.11-2.26-.42-2.73-1.51-1.33-1.12-2.95-1.23-4.53-.06-.81.08-2-.37-2.34-1.69-1.2-1.25-2.87-1.37-4.45a5.62,5.62,0,0,0-.38-2.39c-1.73-2.89-2.4-6.1-3.11-9.32a6.91,6.91,0,0,0-1-1.71c-.46.59-.86.87-.9,1.2-.56,4.34.78,8.94-1.83,13-.31.49-.06,1.34-.06,2,0,2.06.13,4.12,0,6.17a25.94,25.94,0,0,1-1,3.74,24.39,24.39,0,0,0-.58,3.14c-.28,2.73.86,5.72-1.59,8.06-.29.27,0,1.07-.15,1.6-.67,2.93-.82,6.16-2.26,8.67-1,1.72-.32,3.78-1.38,4.87C764.76,295.16,766.12,296.77,768.24,298.57Z"/><path class="ae20daa0-bb8d-4a2f-9d2b-e75ae74716d4" d="M1555.11,280.86c-.58,1.53-1,2.51-1.33,3.5l-.57-.08c-.26-1.49-.51-3-.76-4.46l-.65-.12a6.82,6.82,0,0,0-.81,1.85,32.56,32.56,0,0,0-.06,3.7c0,19.51.11,39-.08,58.53,0,4.79-1.4,9.41-5.47,12.71a48,48,0,0,1-3.92,3.3c-1.67.69-3.31,1.83-5,2-3.14.22-6.45,1.34-9.44-.74-.22-.16-.45-.43-.67-.43-6.2.08-7.58-4.9-9.64-9.16-.74-1.53-1.13-3.41-2.27-4.54s-1.11-2.38-1.12-3.69c0-4.53,0-9.07-.06-13.6a18.52,18.52,0,0,0-.87-3.79c-.09-.34-.37-.89-.26-1,2.24-1.87,1.07-4.39,1.11-6.57.16-8.1.09-16.21,0-24.31a7.56,7.56,0,0,0-1.09-4.6,5.7,5.7,0,0,1,.25-6.18,5.68,5.68,0,0,0,.82-2.58c.23-3-.57-6.17,1.58-9,.61-.8.07-2.41.19-3.64.25-2.73-.89-5.69,1.52-8.12.5-.5.17-1.85.18-2.81,0-6.18,0-12.36,0-18.55,0-1.73.28-3.2,1.72-4.28a4.26,4.26,0,0,0,1.82-3.44,12,12,0,0,1,1.13-3.34,17.67,17.67,0,0,1-1.15-3.84c-.17-2.46-.53-5.08.1-7.38a66.28,66.28,0,0,1,4.15-10.18c1.26-2.7,2.86-5.22,4.17-7.89a4,4,0,0,0,.15-2.44c-.63-2.87.72-5.3,2-7.56a6.21,6.21,0,0,1,3.87-2.43,7.4,7.4,0,0,0,4.47-3.2c2.45-3.2,6.59-2.89,10.23-1.37,3.33,1.38,6.08,3.18,6.94,6.94,5.52,5.73,7,13.74,11.49,20.09,1.1,1.57.53,3.76,1.78,5.65,1.36,2.06,1.28,5,2.07,7.49s1.94,4.8,2.83,7.23a30,30,0,0,1,2.09,6.7c.33,3,2.88,5.57,1.89,8.84,2.43,3.79,2.51,8.44,4.72,12.4,1.36,2.43,1.28,5.63,2.07,8.42.6,2.12,1.55,4.13,2.51,6.64,2.4-2.85.48-6,2.34-8.52.26,2.07.52,4.15.77,6.22l.82,0a7.1,7.1,0,0,0,.71-2c.1-2.06,0-4.12.07-6.18s-.67-4.34,1.38-6.11c.52-.45.29-1.83.3-2.78,0-3-.07-6.05.06-9.07a23.74,23.74,0,0,1,1-4.17c-1.27-2-2.08-4.62,0-7.47a4.56,4.56,0,0,0,.56-2.32c.14-2.51-.09-4.9,1.45-7.36.87-1.39.74-3.93-.7-6.13-.94-1.44-.18-4.05,0-6.12,0-.59.94-1.16.91-1.7-.18-3,.35-5.52,2.94-7.53.67-.53.57-2.32.49-3.5a10.34,10.34,0,0,1,3.42-8.61c1.73-1.61,1.9-3.44,2-5.55,0-2.35-.75-4.89,1.47-6.91.51-.47.21-1.84.26-2.8.18-3.4,1.34-4.78,4.65-4.7a6.55,6.55,0,0,0,5-2.08,9.68,9.68,0,0,1,2.77-1.43c.23-.1.57,0,.82,0,1.45-.55,3.28-2,4.23-1.5,1.46.69,2.7,1.57,4.43,1.62a3.75,3.75,0,0,1,2.07,1.07c3.18,2.73,5,6,4.91,10.43-.06,2.06-.72,4.31,1.32,6.12.59.52.34,2.08.34,3.17q0,8.87,0,17.72c0,1.59.31,3.21-1.21,4.54-.54.47-.45,1.79-.48,2.72,0,2.61,0,5.22,0,7.83,0,1.71.24,3.35-1.16,5-.79.92-.35,2.88-.48,4.37-.18,2.09.47,4.21-1.33,6.18-.78.86-.26,2.89-.39,4.38-.17,1.95.65,4.09-1.35,5.71-.45.37-.3,1.55-.35,2.36-.14,2.25.23,4.45-1.31,6.63-.86,1.22-.25,3.46-.36,5.24-.1,1.56.46,3.22-1.19,4.53-.56.43-.53,1.77-.55,2.69-.07,2.89,0,5.78,0,8.66,0,1.45.26,2.91-1.18,4.14-.63.53-.61,2-.63,3-.07,3.71,0,7.42-.05,11.13,0,2.38.63,4.91-1.36,7-.44.46-.24,1.58-.25,2.39a49,49,0,0,0,0,6.18c.53,4.68-2.89,8.76-1.92,13.48-2.37,3.5-1.76,7.87-3.34,11.59-1,2.39-2.33,4.64-3.39,7-2.34,5.25-5.18,10.11-9.84,13.69-.43.33-.76,1.11-1.14,1.12-3.64.09-6.77,2.93-10.57,1.94a58.42,58.42,0,0,1-5.66-1.69c-3.33-1.23-6.67-2.47-9.88-4-2.16-1-2.94-5.28-1.68-7.61,1.81-3.32,1.81-4.06-.61-6.6-1-1-1.2-2.26-1.72-3.46-1.86-4.28-1.25-9.28-4.46-13.25-1.19-1.48-.88-4.32-2.15-6.25a10.42,10.42,0,0,1-1.82-6.84c.06-.57-.42-1.22-.72-1.79-1.17-2.2-2.82-4.2-2.69-6.91a1.58,1.58,0,0,0-.29-1.15c-3.85-3-4.05-7.52-5.13-11.71C1557.39,284.19,1556.3,282.94,1555.11,280.86Z"/><path class="ae20daa0-bb8d-4a2f-9d2b-e75ae74716d4" d="M1558.12,599.38l2.92-3.23c-.8-2.87-3.24-5.07-3.19-8.33,0-.88-1.09-1.73-1.5-2.68a21.51,21.51,0,0,1-1.75-4.74,34.45,34.45,0,0,1-.06-5.6c-4.25-.27-5-3.94-6.6-6.67a16,16,0,0,1-2-8.38c0-1.93-1.38-3.88-2.21-6-2.68,1.14-3.24,3-3.23,5.55.07,20.07,0,40.14,0,60.2,0,1.23.39,3.06-.25,3.59-2.08,1.72-.66,4.5-2.32,6.19-2.05,2.1-3.74,5.27-6.22,6.09-4.88,1.62-10,4.45-15.42,1.1a1.72,1.72,0,0,0-.75-.3c-4.9-.37-7.35-3.55-9.13-7.68a5.68,5.68,0,0,0-2.12-2.34c-2.54-1.6-3.09-3.91-2.91-6.68.14-2.19,0-4.4.05-6.6,0-1.58-.39-3.23,1.15-4.58.54-.48.45-1.8.46-2.74,0-4.68.09-9.35,0-14,0-1.25-.75-2.47-1-3.73a14.44,14.44,0,0,1-.51-3.18c-.06-4.54-.11-9.08,0-13.61,0-1.25.74-2.48,1-3.74a14.39,14.39,0,0,0,.53-3.17c.07-3,0-6,0-9.07a10.68,10.68,0,0,1,1.21-5.37,8.44,8.44,0,0,0-.21-7.85,8.36,8.36,0,0,1,.09-8.8,17.52,17.52,0,0,0,2.46-10.72c-.13-1.75.44-3.54.79-6-1.38-1-.62-3.26-.89-5.35-.31-2.34,1-3.69,2.35-5.26a25.46,25.46,0,0,0,2.54-4.36c-1.51-2-1.87-3.65-.42-6.35,1.7-3.15,2-7.09,3-11.2a4,4,0,0,0,3.18-3.09c.8-3,.81-4.14,1.93-8.46,1.55-6,3.73-12,10.51-14.79,7.19-2.95,12.26-.89,16.5,6,2,3.2,4,6.41,5.77,9.71a120.58,120.58,0,0,1,5.69,11.08c1,2.37,1.13,5.12,1.91,7.61a45.68,45.68,0,0,0,2.93,7.22c.93,1.79.37,3.82,1.79,5.7s1.34,5,2.3,7.44c1.71,4.32,2,9,3.64,13.28,1.22,3.28,2.06,6.72,3.43,9.86,1,2.25,1,4.36,1.49,6.55.36,1.7,1.49,3.23,2.39,5.05l2.13-1.55c.35,1.11.67,2.12,1.07,3.41,2.46-1.45,3.53-3.11,3.3-5.73a45.83,45.83,0,0,1,0-7.41c.12-1.55,1-3,1.07-4.6.17-3.77.53-7.65-.15-11.3-.3-1.66-1.06-2.71.24-4.27a12.52,12.52,0,0,0,1.58-3.54,20.78,20.78,0,0,1-1.09-4.35q-.18-8.66,0-17.32c0-1.24.78-2.46,1.11-3.72a14.72,14.72,0,0,0,.58-3.14c.1-2,0-4.09,0-6.19l3.63-1.31-1.11-7.89,3.9-.37a13.38,13.38,0,0,0,.37-2.7c-.36-5.93,1.65-11.15,4.52-16.18a5.52,5.52,0,0,0,.57-2.7c-.06-2,1.31-2.94,2.61-3.73a33,33,0,0,1,6.63-3.21,7.86,7.86,0,0,1,4.85-.23c3.44,1.27,7.62.92,10.1,4.52,1.52,2.21,3,4.3,3.07,7.14s-.85,5.74,1.61,8.12c.43.43.2,1.59.2,2.41,0,6.18.07,12.37,0,18.55a15.3,15.3,0,0,1-1.08,3.71,12.19,12.19,0,0,0-.69,2.65c-.09,2.61,0,5.23,0,7.84-.05,1.86.33,3.74-1.19,5.45-.66.74-.33,2.36-.45,3.58-.22,2.36.55,4.78-1.44,7-.78.86-.24,2.9-.34,4.41-.12,2,.54,4.09-1.4,5.72-.45.38-.26,1.56-.32,2.37-.15,2.24.29,4.41-1.36,6.57-.87,1.15-.21,3.45-.31,5.23-.08,1.58.42,3.24-1.19,4.56-.55.45-.47,1.78-.49,2.71-.06,2.75,0,5.5,0,8.25,0,1.59.24,3.17-1.22,4.54-.61.57-.46,2.06-.47,3.13-.05,3.85,0,7.7,0,11.55,0,2.11.49,4.3-1.32,6.18-.59.61-.29,2.11-.3,3.2,0,2.48,0,5,0,7.42,0,1.58.49,3.34-1.27,4.45a.85.85,0,0,0-.3.73c.85,4-1.49,7.55-1.93,11.4s-2.11,7.51-3.78,11c-1.41,3-3.33,5.69-4.74,8.66-2.45,5.14-8.08,9.09-13.67,10.85-2.61.81-5,1.68-7.72,1.44a5.44,5.44,0,0,1-2.74-1.24c-1.48-1.23-2.83-2.25-5-2.23a4.18,4.18,0,0,1-3-2.21c-.94-2.14-2-4.58-1.76-6.79.31-3.35-2.59-5.69-2.08-8.9-2.29-1.34-1.27-3.93-2.19-5.84A26.45,26.45,0,0,0,1558.12,599.38Z"/><path class="ae20daa0-bb8d-4a2f-9d2b-e75ae74716d4" d="M1146.9,346.92c1.23,2,3.09,3.2.81,5-.5.4-.5,1.48-.66,2.25a85,85,0,0,1-1.89,8.89,34.82,34.82,0,0,1-3.24,6.11c-2.14,3.76-3.46,7.95-6.72,11.09-4,3.89-8.84,4.6-14.08,4-1.17-1.81-4.7-.79-4.74-3.95a57.9,57.9,0,0,0-5.92-2.78c-1.09-.38-2.42-.06-3.64-.06-.6-1.33-.86-2.63-1.63-3.43-1.55-1.62-3-3.16-2.57-5.62-2.88-3.43-1.36-7.53-1.6-11.34-.07-1.2.69-2.46,1.08-3.69a7.51,7.51,0,0,0,.52-1.51c.15-2.26-.4-4.68,1.69-6.42-1-4.43,2.16-8.28,1.79-12.66-.09-1.07.66-2.22,1-3.33.24-.76.45-1.52.71-2.27.46-1.32,1-2.64,1.54-4.26l-1-.79c.46-1.67,1.35-3.17,1.17-4.55a11.29,11.29,0,0,1,2-7.67,10.35,10.35,0,0,0,1.5-5.72c.12-2.89-.68-5.88,1.5-8.57.69-.84.13-2.66.22-4,.14-2-.49-4,1.29-5.78.65-.66.34-2.36.34-3.58,0-9.76,0-19.52,0-29.28,0-2.12,0-4.14,2-5.4,1.4-.86,1.47-2.15,1.44-3.57q-.06-3.3,0-6.59c0-1.6-.28-3.21,1.16-4.58.54-.51.44-1.8.46-2.74,0-2.61,0-5.22,0-7.83,0-1.69-.3-3.34,1.19-4.94.8-.86.59-2.88.46-4.35-.24-2.73,1.12-5.77-1.46-8.15a2,2,0,0,1,.11-1.9c2.06-1.39,1.32-3.44,1.37-5.25q.13-5,0-9.9c-.06-2.11.08-4,1.93-5.49,1.64-1.28,1.75-2.39.53-4.42a8,8,0,0,1-.52-6.28c1.43-3.5,2.26-7.19,4.11-10.61,2.57-4.74,6.59-5.77,10.87-4.74a12.33,12.33,0,0,1,8.84,7,18.4,18.4,0,0,1,1.53,7.78c0,2.27-.33,4.56,1.4,6.6.57.66.24,2.12.24,3.22,0,6.87.25,13.75-.11,20.6-.14,2.89,1.45,4.84,2.34,7.16.5,1.32,2.07,1.06,3.09.08,1.35-1.31,2.48-2.89,3.94-4.05,1.82-1.46,3-3.53,5.69-4.25,1.78-.48,3.16-2.74,4.56-4.35,1.55-1.79,3.21-3.44,4.91-5.08,3.68-3.54,8.33-5.06,12.44-7.63a8.49,8.49,0,0,1,6.85-1.43c3.31.9,6.78,1.44,9.61,4,3.75,3.43,6.13,7.68,8.21,12.08,2.29,4.82-.24,14.26-4,18.19-2.3,2.44-5.77,4-6.28,7.94,0,.1-.19.19-.3.26-3.85,2.68-5.43,7.19-8.4,10.62a31.89,31.89,0,0,0-5,7.37c-1,2.16-2.76,4-4,6.19a226.1,226.1,0,0,0-11.12,21c-1.65,3.57-3.47,7.07-4.89,10.73a4.19,4.19,0,0,0,.82,4.82,26.25,26.25,0,0,0,9.67,6.94c2.26.92,3.88,3,6.3,4a122.71,122.71,0,0,1,12.13,6.09c3.83,2.1,8.38,3.08,11.19,6.89a4.29,4.29,0,0,0,3.92,1.73c2.42-.11,4.67,0,7,1.55,1.59,1.06,3.48,2.71,5.9,2.06a1,1,0,0,1,.78.2c3.78,3.48,8.82,5.57,11.66,10,1.36,2.12,3,4.36,2.68,7.3-.19,1.81-.39,3.68,1.25,5.34.64.65.55,3.06-.13,3.75-1.3,1.31-.92,2.71-1.23,4.12-.39,1.76-1.16,3.43-1.69,5.16a18.61,18.61,0,0,1-7.2,9.41c-1.7,1.23-3.83,2.76-6.47,2.46a28.38,28.38,0,0,0-6.18,0c-3.53.36-6.3-1.36-9.39-2.6-3.28-1.31-6.44-3.09-9.76-4-2.76-.74-5-2.13-7.51-3.24-2-.91-4.26-1.39-6.31-2.27-2.52-1.09-5.18-2-7.07-4.18a2.32,2.32,0,0,0-1.27-.85c-4.36-.29-7.51-3.47-11.37-4.74-4.25-1.4-7.28-4.58-11.2-6.38-2.94-1.35-5.72-.39-5.5,2.9.23,3.46-2.55,5.94-2.26,9.28C1148.47,346.28,1147.36,346.65,1146.9,346.92Z"/><path class="ae20daa0-bb8d-4a2f-9d2b-e75ae74716d4" d="M959.83,437.86l2.51.87c.89,2.08,1.72,3.86,2.39,5.71a8.1,8.1,0,0,1,.25,2.43c.1,2.14-.44,4.39,1.4,6.17.31.3.27,1.06.23,1.59-.21,3.22-.13,6.31,3.07,8.28a1.47,1.47,0,0,1,.52,1c.17,2.39-.31,4.92,1.68,6.86-.9,3.27.82,6.32,2,8.78,1.59,3.19.28,7.05,2.94,9.73.23.23.14.8.14,1.21-.07,3.81,1.53,7.09,3.16,10.39a6.63,6.63,0,0,1,.28,2.43c.16,2.23-.58,4.61,1.47,6.5.44.4.16,1.58.19,2.4a13.91,13.91,0,0,0,1.49,6.5,34.37,34.37,0,0,1,3.9,13.69c.27,3.62,2.51,7.09,3.88,10.63q1.41,3.62,2.87,7.22c1.47,3.63,1.41,7.64,3.16,11.25,1.17,2.43.85,5.61,2.14,7.93,2.17,3.93,2.4,8.44,4.51,12.4,1.38,2.58,1.38,5.88,2.23,8.79.75,2.62,1.81,5.15,2.74,7.72a6.77,6.77,0,0,1,.65,1.86,17.92,17.92,0,0,0,1.54,6.11c1.32,3.37,1.32,7.25,2,10.9.23,1.26.85,2.44,1.15,3.7a30.1,30.1,0,0,1,.53,3.57c.37,3.13-1,6.57,1.63,9.3-.44,3.67,1.52,7.6-1.23,11a1.27,1.27,0,0,0-.3.75c.31,5.43-4.86,7-7.38,10.44a1.48,1.48,0,0,1-1.07.42,7.39,7.39,0,0,0-4.81,1.53c-1.22.87-3.48-.13-4.75,1.64-.22.3-1,.18-1.58.22-2.43.2-9-2-11-3.71-.4-.35-.65-.91-1.1-1.16-.78-.43-2.1-.47-2.4-1.07a14.17,14.17,0,0,1-1.85-5.51c-.13-3.3-1.69-5.77-3.49-8.24-1.61-2.19-3.07-4.33-3.54-7.22-.43-2.63-1.86-5.09-2.74-7.66a27.22,27.22,0,0,1-.53-3.17c-.24-1.15-.59-2.27-.81-3.43a4.48,4.48,0,0,1,0-1.59c.06-.36.51-.95.46-1-3-2.15,0-6.3-2.85-8.46a.48.48,0,0,1-.14-.38c.61-3.32-1.52-5.88-2.37-8.74l-6.31-1.65c-1.52,2.37-4.13,3.29-7.32,2.88-.8-.11-2-.22-2.4.22-2.32,2.23-5.13,1.43-7.77,1.47-5.48.1-11,0-16.56,0a62,62,0,0,0-4.28,12.38c-.54,2.57-2.12,4.92-3.12,7.41-1.25,3.16-2.12,6.49-3.63,9.51-1.78,3.55-3,7.39-6,10.4-2,2-2.73,5.12-4.51,7.35-2.45,3.06-4.73,6.43-8.62,8-.36.15-1.07.35-1.05.44.44,3-2.45,2.81-3.88,3.78-1.06.71-3.54,1.08-4.07.47-1.59-1.83-3.58-1-5.64-1.62.41-.82.76-1.55,1.26-2.56l-3-.9c.62-1.43,1.25-2.82,1.81-4.24a18.19,18.19,0,0,0,1.13-3.28c.38-2.06-.8-4.45,1.4-6.09-1.39-2.24.75-4.24.44-6.43a3.87,3.87,0,0,1,1.74-4.23c1.69-1.08,2-2.85,1.73-4.71A13.7,13.7,0,0,1,887.38,617c.22-.31.63-.74.55-1-.93-3.29,1.47-5.87,1.89-8.9a26.18,26.18,0,0,1,2.68-7.27,4.91,4.91,0,0,0,0-5c-1.43-2.34-3-4.54-3-7.51,0-.65-.81-1.32-1.19-1.89,1-2,2-4,3-6a8.89,8.89,0,0,1,1.44-2.23c2.5-2.41,4.47-5,3.66-8.76a.81.81,0,0,1,0-.41,34.1,34.1,0,0,0,1.64-4.81,47.39,47.39,0,0,0,.17-4.93,2,2,0,0,1,.8-1.3c2.43-1.72,2.75-4.14,2.55-6.85a44.44,44.44,0,0,1,0-5.77,13.08,13.08,0,0,1,.7-2.68,25.36,25.36,0,0,0,1.08-3.75c.27-2-.24-3.92,1.29-5.79.77-.95.3-2.9.4-4.4.14-2-.53-4.11,1.4-5.75.46-.39.3-1.55.36-2.37.13-1.57-.36-3.26,1.37-4.46.45-.31.25-1.55.38-2.35.53-3.25-1.3-6.83,1.4-9.76-1.23-1.4-.34-2.55,0-4.06a38.37,38.37,0,0,1,3.48-9.85,2.31,2.31,0,0,0,.15-1.21c-.25-4.51,1.25-8.51,3.13-12.53,1.08-2.32,1.34-5,2-7.54a17.38,17.38,0,0,1,.75-1.79,5.86,5.86,0,0,0,.78-2.18c-.25-4.46.57-4.52,1.38-9,.74-4.17,3.27-7.36,4.31-11.35a22.52,22.52,0,0,1,8.48-13c1.74-1.21,4.18-1.37,6.06-2.43,2.86-1.62,5.86-1.61,9-1.61,4.25,0,7,2.73,9.75,5.32.47.44.43,1.52.48,2.32C959.88,435.37,959.83,436.6,959.83,437.86ZM937.5,507.38c0,1.86,0,3.48,0,5.1,0,.81.16,2-.29,2.37-2,1.59-1.42,3.71-1.39,5.67.06,4.86-2.71,9.35-1.76,14.31a.93.93,0,0,1-.24.75c-2.12,1.49-1.25,3.71-1.38,5.65s.64,4.69-.36,6c-1.83,2.46-1,4.93-1.39,7.4-.54,3.81-1.19,7.62-1.81,11.42a1.25,1.25,0,0,1-.4.7c-1.81,1.53-1.22,3.39-.85,5.45,3.78.2,7.67,1.52,10.31-2.58a.93.93,0,0,1,.7-.37c3.55.11,7.3-1.3,10.42,1.43.71-.68,1.3-1.22,1.86-1.79,2.91-3,3.13-5,1.12-8.88a4.6,4.6,0,0,1,1-5.68L950.62,550c.37-2.35,1.15-4.11.74-5.53-.55-1.94-2-3.64-3.09-5.41-.55-.9-1.72-1.73-1.73-2.6,0-3.13-2.69-5.66-1.9-9a2,2,0,0,0-.62-1.41c-2-2.2-1.35-4.16.15-5.7-1.23-4.53-2.39-8.77-3.6-13.22Z"/><path class="ae20daa0-bb8d-4a2f-9d2b-e75ae74716d4" d="M1264.18,642.83c-1.73-.6-3.86-.43-3.53-2.88a.48.48,0,0,0-.15-.37c-3.89-2.39-3-6.26-3.09-9.84,0-1.73,0-3.29-1.22-5-1-1.36-.59-3.67-.85-5.86a9.66,9.66,0,0,1-2.08-.67c-1.85-1-3.26-2.35-2.92-4.78.28-1.93-.69-4.12,1.39-5.69a2.09,2.09,0,0,0,.35-1.93c-1.48-3.41-1.08-7.65-4.7-10.15-1.9-1.32-3.71-1.88-5.46-.8-2.6,1.62-5.13,3.32-8.43,2.83-8,3.5-16.4,1-24.58,1.74l-2.83.25a94.93,94.93,0,0,0-4.14,12.4c-.83,3.45-3,6.55-4.3,9.92-.84,2.2-.89,4.67-2.34,6.68-2.37,3.27-3.14,7.4-6.11,10.46-1.93,2-2.91,4.88-4.37,7.35a8.27,8.27,0,0,1-1.3,1.49c-2.81,2.84-5.94,5.45-8.38,8.58s-5.42,3.17-8.71,2.94c-1.64-.12-5.11-3.36-5.23-4.92a19.82,19.82,0,0,1,0-4.93c.41-2.19.74-4.65,2-6.33s1.21-3.51,1.28-5.36a14.58,14.58,0,0,0,0-2.88c-.55-3.54.92-6.49,2.49-9.45a7.38,7.38,0,0,0,.86-2.6c.24-2.49-.42-5,1.56-7.33.85-1,.3-3.18.4-5.05a13.59,13.59,0,0,1,1.35-.55c.51-.16,1-.24,1.42-.32.84-3.65,1.52-7.18,2.5-10.61a12.85,12.85,0,0,1,2.31-4.54c1.33-1.65,1.06-2.62-.31-4.08a24.65,24.65,0,0,1-3.1-5c-.18-.32,0-.89.15-1.32.37-1.41.78-2.8,1.31-4.66l2.34-.88c1.24-2.79,2.16-6,4.68-8.23.38-.33.91-.92.83-1.26-.93-4.2,2-7.76,1.86-11.81,0-.41-.12-1,.09-1.21,2.66-2.91,1.28-6.47,1.62-9.74.1-1-.13-2.21.39-2.78,2.13-2.31,1-4.85,1-7.45l-3.26-.94c.26-1.45.44-2.86.79-4.23.15-.59,1-1.18.94-1.61-.81-3.3,1-6.23,2.07-8.86,1.17-2.94,1.28-5.7,1.5-8.62,0-.4.06-1,.3-1.16,3-1.8,2.43-5.07,3.53-7.64,1.32-3.1,1.37-6,1.35-9a18.2,18.2,0,0,0-1.06-4.05c.17-.29,1.08-1.13,1-1.82-.63-4.66,2.63-8,4-11.91,1-2.75,2.93-5.14,4.24-7.8a3.62,3.62,0,0,0-.1-2.7c-1.3-3-1.37-2.93,1.29-3.95,1.36-3.38,2.57-6.41,3.85-9.58a6,6,0,0,1-.2-7.45c1.17-1.83.42-4.49,2.27-6.26.83-.79,1.21-2,1.9-3,1.24-1.7,3.08-2.8,3.84-5.11.41-1.24,3-2.59,4.46-2.5,2.73.17,4.57-1.53,6.64-2.42a10.65,10.65,0,0,1,9.42.05,18.44,18.44,0,0,1,5.38,3.85,7.6,7.6,0,0,1,2.77,5.05c.27,2.48,1.75,4.83,2.72,7.23.09.24.43.48.39.67-.76,3.49,1.61,6.36,1.91,9.69a20.7,20.7,0,0,0,2.25,7.91,13.27,13.27,0,0,1,1.21,4.14c.29,1.53,1.61,3.08,1.39,4.44-.57,3.5,2.25,6,2.12,9.3,3.29,2.28.15,6.82,3.2,9.22.23.17.15.78.15,1.19a21.7,21.7,0,0,0,3.13,10.42A1.81,1.81,0,0,1,1264,500c-.9,3.28.94,6.23,2,8.84,1.88,4.73,1.58,10.1,4.58,14.44.47.67.06,1.9.26,2.82a27.71,27.71,0,0,0,1.09,3.26c.13.38.57.78.49,1.07-.88,3.32,1.22,6,2.14,8.85.83,2.53,1.59,5.24,2.62,7.77s2.55,5.41,2.57,8.63a21.82,21.82,0,0,0,2,7.64c1.29,3.27,2.89,6.39,3,10,0,1.07.94,2.1,1.43,3.15,1.32,2.83,1.54,6.09,3.43,8.7a2.38,2.38,0,0,1,.13,1.21c0,3.79,1.37,7.13,3.09,10.41.41.79.13,1.9.34,2.82.28,1.27.73,2.5,1.1,3.75a12.13,12.13,0,0,1,.61,2.31c.16,1.73-.23,3.51,1.31,5,.46.44.31,1.56.36,2.37.15,2.25-.12,4.38,1.48,6.56,1,1.37.27,4,.41,6s-.69,4.19,1.44,5.64c0,3.54.4,7.15-.21,10.57-.21,1.17-1.13,2.55-1.34,4a4,4,0,0,1-1.19,2c-1.67,1.76-3.55,3.33-5.11,5.18a4.52,4.52,0,0,1-3,1.53,37,37,0,0,0-7.47,2.17c-3.28,1.41-4,1.54-7.33-.12-.94-.48-2-.64-3-1C1265.56,653.3,1263.85,648.8,1264.18,642.83Zm-40.5-132.6c-1.3-1.73.21-4-2.46-5.38-.07,2.11-.07,3.68-.19,5.24-.08,1.07.06,2.58-.56,3.09-1.36,1.12-1.2,2.45-1.1,3.74.33,4.37-2.7,8.25-1.79,12.69a.86.86,0,0,1-.3.72c-1.91,1.21-1.31,3.13-1.36,4.83-.06,2.61,0,5.22,0,7.83,0,.93.07,2.27-.48,2.72-1.69,1.41-1.27,3.19-1.35,4.91-.1,2.32.54,5-.44,6.89-2,3.77-.91,7.34-1,11.15,2.39,0,4.89.76,6.07-.16a7.52,7.52,0,0,1,6.51-1.26c3.89.72,7-1.75,10.55-2.13a3.45,3.45,0,0,0,2.82-3.53c0-2.74,0-5.49,0-8.24a2.57,2.57,0,0,0-.7-1.75,7.88,7.88,0,0,1-3-5.83c-.16-1.36-.55-2.3,0-3.86.65-2,1-4.46-1-6.55a8.62,8.62,0,0,1-2.11-4.56c-.46-3.56.54-7.35-1.88-10.56.85-5.13-4-8.39-3.8-13.33l-.82,0C1224.71,507.9,1224.28,508.89,1223.68,510.23Z"/><path class="ae20daa0-bb8d-4a2f-9d2b-e75ae74716d4" d="M1401.08,219.93c-1.6-2.23-1.67-2.3.76-4.73a5.22,5.22,0,0,0,1.72-3.44c.19-1.78,1.19-3.47,1.51-5.25a38.65,38.65,0,0,1,1.28-4.84,41.53,41.53,0,0,1,3.62-8.61c.49-.85.26-2.15.22-3.24-.11-3-.06-5.91,1.8-8.47.23-.32.44-1,.61-1,3.29.26,3.31-3,4.11-4.56a21.66,21.66,0,0,1,11.46-10.62,13,13,0,0,1,12.69,2.13,47.45,47.45,0,0,1,4.38,4.25c.28.28.65.57.74.91.66,2.53.64,5.5,2,7.51,2.11,3.05.4,7,3,9.72.22.23.14.79.14,1.2a22.12,22.12,0,0,0,3.12,10.36c.41.78.15,1.89.36,2.81.29,1.26.72,2.49,1.1,3.73.16.51.58,1.08.46,1.5-1,3.32,2.17,5.74,1.86,8.89,2.86,2.46.56,6.68,3.15,9.27.23.23.18.78.19,1.19a21.66,21.66,0,0,0,3.31,10.35,2.41,2.41,0,0,1,.31,1.17,23.17,23.17,0,0,0,3.22,11.32,2.68,2.68,0,0,1,.17,1.21c0,3.79,1.51,7.09,3,10.43.37.81.14,1.89.36,2.81.29,1.25.73,2.48,1.13,3.71.13.37.55.78.47,1.07-.94,3.42,1.66,6.07,2,9.27.27,2.44,2.06,4.68,2.83,7.12.91,2.9,1.31,5.95,2.19,8.85.83,2.73,1.24,5.59,2.81,8.1,1.19,1.89.84,4.29,2.2,6.37s1.17,4.81,2,7.18,1.91,4.77,2.89,7.14c.15.37.48.8.4,1.12-.8,3.27,1.88,5.84,1.76,9,3.24,2.41.16,7,3.24,9.53.42.36,0,1.61.19,2.4.28,1.26.72,2.49,1.12,3.73.08.25.32.46.35.71.64,4.75,1.31,9.49,1.86,14.24a39.87,39.87,0,0,0,1.23,6.17c1,3.58,1.8,7.73-.69,11.37a2.2,2.2,0,0,0-.44,1.12c0,5.11-4.67,6.86-7.34,10-1.16,1.37-3.45.35-5.23,1.73s-4.71,1.56-7.12,2.27c-2.68.79-4.46-1.59-6.84-1.95a8,8,0,0,1-3.46-1.81c-.91-.71-2.22-1.79-2.2-2.69.08-4-2.68-6.81-4.09-10.11-1.26-2.94-2.93-5.54-3-8.93a9.34,9.34,0,0,0-2-4.7c-2.81-3.92-3.94-8.42-5-13a4.65,4.65,0,0,0-1-1.67c-.79-1-.88-2,.13-2.87a3.44,3.44,0,0,0,.68-4.5c-1.59-1.82-1.3-3.72-1.46-5.69a4,4,0,0,0-3.87-3.85c-3.16.14-6.59-1.19-9.4,1.52-.37.36-1.32.14-2,.16s-1.53-.23-2,.08c-4.78,3-10,1.28-15.08,1.61-2,.13-4.37.79-6.08-1.39-.3-.39-1.63-.28-2.31,0a10.15,10.15,0,0,0-5.48,5.5c-1,2.28-1.15,4.87-2,7.23-1,3.09-2.36,6.09-3.56,9.12a89.28,89.28,0,0,1-3.51,8.7c-1.88,3.57-3,7.49-6,10.58-1.89,2-2.74,4.94-4.33,7.27a34.48,34.48,0,0,1-4.06,4.42c-1.42,1.46-3,2.75-4.32,4.34-2.86,3.58-6.22,5.58-11.33,4-1.16-2.31-2.85-4.87-2.27-8.18.23-1.29-.33-2.74,1.22-3.67.4-.25.44-1.24.49-1.9.15-1.83-.36-3.72,1.42-5.27.58-.51.24-2.09.33-3.18.2-2.5-.62-5.11,1.41-7.39.66-.74.31-2.37.44-3.76l3.23-.88c0-3.39,0-6.92,0-10.46a10.21,10.21,0,0,1,1.08-5c.94-1.75.64-4.27.51-6.44-.16-2.73.27-5,2.59-6.8a3.22,3.22,0,0,0,1-2.46c-.32-3,1.38-6.31-1.53-8.9-.31-.29,0-1.57.34-2.25a25.44,25.44,0,0,1,6.41-7.95l1.38-1.19-2.57-7.82,2.8-1-1.09-1.61c.42-1.68.83-3.12,1.12-4.59a11.77,11.77,0,0,0,0-2.06c0-2.8-.42-5.66,1.66-8.08,1.93-2.24,1.15-5.66,3.25-7.86-.77-4.15,1.91-7.75,1.89-11.78,0-.27,0-.55,0-.82-.35-4.52,0-4.41,1.44-9.85.92-3.55,2.68-7,2-11a7.88,7.88,0,0,1,1.27-6.15c1-1.42.46-4,.4-6-.07-2.52,0-4.79,2.23-6.66.85-.71.95-2.36,1.29-3.62C1400.35,223.36,1400.64,221.87,1401.08,219.93Zm12.34,89.16c2.54-.16,5.11.44,6.41-.58,2.48-1.94,5-1.19,7.44-1.16,1.44,0,2.88,1.58,4.31,1.56,1.58,0,3.14-1.52,4.74-1.56,2.22-.06,4-1,4.54-2.74s.64-4.16-.24-5.53a7.56,7.56,0,0,1-1-5c.19-3.22-1.36-5.72-3.29-7.88-1.69-1.89-1.77-3.95-2.22-6.19s-2.13-4.05-3.24-6.07c-.12-.22.06-.59,0-.81-1.17-2.41-1.89-4.79,0-7.21.13-.18.06-.54,0-.81-.26-2.34.19-4.57-1.27-7s.45-6.11-1.67-8.83c0,0,.49-.34.52-.55a4.21,4.21,0,0,0,0-1.66,18.84,18.84,0,0,0-1.16-2.88c-.15-.29-.62-.42-1.17-.77-.36,1.14-.67,2.1-1,3.1l-3-1.42c0,2.16.09,3.78,0,5.39-.08,1-.09,2.45-.73,3-1.37,1.28-1.18,2.77-1.06,4.2.42,5.19-2.78,9.93-1.77,15.18a.56.56,0,0,1-.07.39c-2.52,2.63-1.36,5.93-1.62,9-.11,1.22.24,2.92-.42,3.57-1.69,1.63-1.24,3.5-1.31,5.34a50.16,50.16,0,0,1-.11,5.76c-.2,1.37-1.33,2.62-1.47,4C1413.24,303.34,1413.42,305.82,1413.42,309.09Z"/><path class="ae20daa0-bb8d-4a2f-9d2b-e75ae74716d4" d="M1080.78,607.2l-2.13-3.05c2.86-.35,4.16-1.75,5.36-4.2a71.79,71.79,0,0,1,5.59-10,29.11,29.11,0,0,0,4.81-10.16,73.33,73.33,0,0,1,5.65-15.71c2.23-4.55,6.44-5.72,9.77-8.4a14,14,0,0,0,3.89-5.1c3.56,0,7.12-.16,10.66.08a9.48,9.48,0,0,1,3.93,1.73c2.45,1.49,5.52,2.65,7,4.84,1.91,2.75,5.3,4.93,5,9,2.8,3.93,1.19,8.42,1.61,12.65.16,1.69-.45,3.5,1.33,4.88.52.41.37,1.8.38,2.74,0,17.18-.09,34.36.12,51.53,0,2.58-2.09,4-2.06,6.31-4,3.55-7.18,7.94-13.11,9.25-3,.66-6,2.13-8.93,1.4-3.58-.91-7.85-.84-10.27-4.45-2-2.95-5-2.22-7.73-2.43-1.34-2.8-2.75-5.42-2.56-8.68.05-1-1.45-2.06-2.39-3.3a36,36,0,0,0-4.94,6.07,17.21,17.21,0,0,1-7,6.25c-6.28,3.31-12.79,3.38-19.48,3.2a3.73,3.73,0,0,1-1.21-.17,23.49,23.49,0,0,0-3.59-1.49,17.74,17.74,0,0,0-3.73-.06c-.35-1.22-.64-2.19-.92-3.14-1.45.5-3.23,1.61-3.73,1.19-2-1.64-5.25-1.39-6.23-4.5-.41-1.3-1.44-3.27-2.38-3.38-4.22-.53-4.13-4.49-6-6.81-.73-.89-1-2.15-1.84-3-1.94-2-2.17-5.14-4.76-6.67-.36-.21-.39-1.33-.26-2,.68-3.31-.72-6.19-2.23-8.79a10,10,0,0,1-1.24-5c-.08-1.69,0-3.19-1.3-4.86-.93-1.18-.68-4.21.22-5.71a8.23,8.23,0,0,0,1.08-4.6q0-19,0-37.93c0-3.46,1.6-6.41,2.61-9.56.23-.74.88-1.51.76-2.17-.75-4.17.58-8.12,2-11.72a24.37,24.37,0,0,0,1.45-8.2,2.76,2.76,0,0,1,.7-1.77c2-1.73.62-3,0-3.83a30.12,30.12,0,0,0,.93-5.3c0-2.24,1-4.08,1.51-6.08a12.58,12.58,0,0,1,2.71-5.57,5.61,5.61,0,0,0,.87-3.71c-.21-3.77,1.67-6.55,3.7-9.42a87.81,87.81,0,0,0,6.64-10.6c.91-1.78,2.62-3.52,2-5.91a.85.85,0,0,1,.29-.73c2.77-2.17,4.4-5.21,6.35-8,1-1.38,2-2.91,4.12-2.86.37,0,.9-.57,1.12-1,1.83-3.49,5.62-4.88,8.09-7.65a24.88,24.88,0,0,0,2.27-3.68c.2-.33.41-.93.62-.93,3.11,0,3.85-3.21,6-4.43,1.12-.63,2.25-1.23,3.4-1.81a18.58,18.58,0,0,0,5.8-3.92c1.17-1.29,3.36-.29,5.2-1.57,2.21-1.54,5.47-1.57,8.27-2.29,1.13-.3,2.23-.72,3.37-1a12.31,12.31,0,0,1,2.73-.58c2.06-.09,4.13.08,6.18-.05,5.4-.35,9.92,2.23,14.69,4.12,4.42,1.75,7.42,5.19,10.15,8.61,2.26,2.85,5.44,5.54,5.37,9.82,0,.45.52.89.75,1.37,1.22,2.59,3,4.88,2.81,8.11-.11,1.59,1.1,3.23,1.48,4.9.76,3.27-.91,6-1.79,8-3.29,1.53-5.95,2.79-8.64,4-.47.22-1.1.59-1.49.44a72.4,72.4,0,0,1-9.9-4.23c-2.56-1.5-2.37-2.21-.37-4.76l-3.94-7.8c-1.48-.64-3.43-1-4.79-2.14-4.08-3.36-7.74-1-11.44.52-5,2.06-8.5,6.1-11.54,10.16s-6.56,7.87-9,12.25c-1.89,3.41-4.76,6.2-5.91,10.17-1.07,3.68-3.28,7-5,10.51-.64,1.29-1,2.9-2,3.8-1.49,1.34-1.25,2.88-1.44,4.49a23.41,23.41,0,0,1-1,3.37,16.94,16.94,0,0,0-.6,2.7c-.16,1.58.38,3.28-1.33,4.47-.41.28-.52,1.29-.43,1.91.36,2.56-.68,4.39-2.44,6.16-.73.73-.9,2.15-1.08,3.3-.32,2.06.66,4.38-1.51,6.08-.36.29-.29,1.72.09,2.27,2.24,3.31,2.09,6.46,0,9.76-.46.71-.31,1.86-.32,2.82,0,2.61,0,5.22,0,7.83,0,1.58.32,3.21-1.2,4.54-.55.48-.5,1.79-.5,2.72,0,9.48-.13,19,0,28.44.07,4.17,2.93,7,5.92,9.43a3.7,3.7,0,0,0,3.52.1C1075.88,607.36,1077.84,606.93,1080.78,607.2Z"/><path class="ae20daa0-bb8d-4a2f-9d2b-e75ae74716d4" d="M965.7,175.15c.5,2.37,1.12,4,1.14,5.63.1,8.65,0,17.31.08,26,0,1.54-.71,3.34,1,4.58.15.11-.05.91-.26,1.28a4.6,4.6,0,0,0,.2,5.64,4.12,4.12,0,0,1,.74,2.21,60.71,60.71,0,0,1,0,7,15,15,0,0,1-1.19,3.44,10.88,10.88,0,0,1,1.18,3.26c.16,4,.11,8,0,12a4.62,4.62,0,0,1-.83,2.56,5.8,5.8,0,0,0-.38,6.53,8.47,8.47,0,0,1,1.22,5.38c-.19,3.42,1,7.05-1.6,10.14-.42.49-.14,1.6-.14,2.42,0,3.85.07,7.7,0,11.55-.05,2.05.5,4.11-1.4,6.05-.94,1-.37,3.41-.41,5.19-.07,3,.6,6.13-2.72,8.07-.5.29-.61,1.44-.68,2.21a21.89,21.89,0,0,0,0,3.71c.38,4.79-1,9.1-3,13.38-1.1,2.32-1.31,5-2.12,7.52a46.36,46.36,0,0,1-2.31,5.33c-1.46,3.06-2.67,6.3-4.55,9.08a104.32,104.32,0,0,1-8.85,11.06,9.46,9.46,0,0,1-4.51,2.26,5,5,0,0,0-4,4.74c-1.72.8-3.26,1.58-4.84,2.25-4,1.66-7.86,3.75-12.38,3.57-4.06,2.84-8.68,1.22-13,1.58-3.94.33-7.43-1.21-10.86-2.92a3.73,3.73,0,0,0-2-.4c-1.53.16-2.34-.91-3.48-1.57A43.54,43.54,0,0,1,875.27,357a48.63,48.63,0,0,1-7.78-12,51.64,51.64,0,0,1-3.6-10.77c-.52-2.37-2-4.51-2.78-6.84a25.09,25.09,0,0,1-.48-4c-.22-1.43-.56-2.84-.89-4.25,0-.23-.48-.58-.47-.59,3.83-3.53-1.79-6.36-.69-10.07,1-3.39.22-7.32.22-11l-3.44-1.31V280.8c0-6.05,0-12.09,0-18.14,0-2-.44-4,1.28-5.81.58-.61.33-2.1.34-3.19,0-4.11,0-8.23,0-12.53.56-.23,1-.44,1.49-.61,2.16-.76,2.6-1.68,1.63-3.48-1.83-3.41-1.75-4.2-.14-7.29a8.67,8.67,0,0,0,.64-3.51c.14-2.81-.39-5.7,1.63-8.19,1.59-2,1.12-4.79,2.06-6.72,1.72-3.55.57-7.31,1.71-10.56,1.4-4,2.82-8.29,6.52-11a4.1,4.1,0,0,1,2.1-.88c3-.1,6.05.07,9.07-.09a3.64,3.64,0,0,1,3.79,2.48c.44,2.13,2.11,3.07,3,4.64a8.08,8.08,0,0,1,0,8.11c-.87,1.52-1,2.34,0,3.83a5.68,5.68,0,0,1,0,6.45,6.9,6.9,0,0,0-.07,7.27,6.23,6.23,0,0,1,.81,2.58,109.31,109.31,0,0,1-.08,13.18c-.31,3-1.72,5.92-2.81,9.43,1.73,2.59,3.45,5.92,3,10a48.09,48.09,0,0,0,0,7c0,1.57-.39,3.21,1.17,4.55.53.46.42,1.79.44,2.73.05,2.47.16,5,0,7.41s.32,4.72,2.38,6.54a4.81,4.81,0,0,1,1.05,3.21c.09,6.17,0,12.34,0,18.69l3.09,1c.63,1.87-.31,4.1,1.79,5.36.23.14.25.77.24,1.17-.08,4.55,2,8.47,3.71,12.47.67,1.6,2,3.34,4.55,2.62,1.65-2.77,2.69-6,5-8.63,2-2.27,2.79-5.58,4.1-8.43.17-.36.1-1,.33-1.14,3.56-1.52,3.4-5.31,4.42-8.07a12.12,12.12,0,0,0-.35-9.9c-.4-.75-.77-2.26-.43-2.55,2-1.66,1.19-3.8,1.3-5.76s0-4.12,0-6.18a15.21,15.21,0,0,1,1.05-4.59,13,13,0,0,0-.05-7.86,13.54,13.54,0,0,1-1-4.15c0-5.91,0-11.82,0-17.73,0-1.6-.23-3.21,1.22-4.57.55-.51.48-1.78.52-2.71.08-1.79-.15-3.6.06-5.36a16.48,16.48,0,0,0-2.65-10.66,4.91,4.91,0,0,1-.19-2.94c.21-1.42.93-2.79,1-4.2.14-4,.08-8,0-12,0-1.87.33-3.76-1.2-5.45-.59-.65-.41-2.09-.42-3.17,0-5.09.26-10.19-.1-15.25-.31-4.31,1-8.24,1.88-12.28.16-.68,1-1.18,1.45-1.83.7-1.08,1.25-2.26,2-3.31s1.4-2.22,2.38-2.58c5-1.82,9.51-4.46,15.3-3.76,4,.49,7.77,1.45,11,4.07.41.33.79.95,1.22,1,1.7.09,2.06,1,2.5,2.54.33,1.11,1.81,1.86,2.69,2.84,1.13,1.29,2.61,2.37,2.32,4.49a2.81,2.81,0,0,0,.82,2.12C967.77,173.2,966.51,174.35,965.7,175.15Z"/><path class="ae20daa0-bb8d-4a2f-9d2b-e75ae74716d4" d="M1639.61,590c-1-1.36-2.49-3-.12-4.85.45-.35.26-1.55.33-2.36.19-2.21-.56-4.53,1.45-6.5.64-.64.44-2.41.23-3.59-.61-3.46,1.12-6.21,2.4-9.12a8.14,8.14,0,0,0,1-2.54c.19-2.5-.4-5.09,1.59-7.29.5-.54.27-1.87.15-2.81a50.16,50.16,0,0,1-.84-5c0-1.44.68-2.88.84-4.34.25-2.22.05-4.28,1.37-6.53a5.3,5.3,0,0,0-1.39-7c-1.58-1.1-1.81-2.62-1.66-4.31.21-2.6-.88-5.48,1.61-7.59-.37-2.46,1.73-2.29,3.44-2.81,0-6.81.21-13.53-.11-20.23-.11-2.4-1.37-4.78-2.33-7.08a9.45,9.45,0,0,1,.21-8.74c1.16-2.23,2.54-4.53,2.43-7.48-.07-1.9,1.47-3.86,2.32-5.77.32-.72,1.14-1.46,1-2.07-.62-3.65,1.28-6.8,1.81-10.2a2.62,2.62,0,0,1,.61-1.45c1.41-1.26,1.48-2.46.13-3.81-1-1.05-.83-2,0-3.28,1.11-1.75,1.59-3.95,2.85-5.55a94.5,94.5,0,0,1,7.28-7.84c.37-.38,1.31-.23,2-.24,2.06,0,4.13-.13,6.19,0,3.73.24,6.78-1.9,10.2-2.67,5.64-1.27,10.45-5.65,16.81-4.4,1.27.25,2.75-.73,4.16-1.06a16,16,0,0,1,3.21-.47c4.39-.05,8.79-.1,13.19,0,1.28,0,2.52.77,3.81,1a30.15,30.15,0,0,0,6,.58,13.53,13.53,0,0,1,11.09,4.63c.55.59,1.11,1.19,1.71,1.72a11.31,11.31,0,0,1,3.51,5.93c.63,2.29,1.8,4.53,1.33,6.86-1.15,5.73-2.72,11.32-9.24,13.46-.71.24-1.17,1.14-1.87,1.44-2.69,1.19-5.4,2.36-8.48,1.82a4.43,4.43,0,0,0-2,0c-1.34.44-2.62,1.5-3.93,1.5s-2.6-1-3.91-1.53a23.11,23.11,0,0,0-3.25-1.2A4.89,4.89,0,0,0,1714,457a15.87,15.87,0,0,1-13-.06,3.47,3.47,0,0,0-1.19-.25h-16.94c-.13,1.39-.29,2.32-.29,3.25q0,14.83,0,29.68c0,1.31-.3,2.66,1.12,3.73.55.41.55,1.76.55,2.68,0,10.45.06,20.89,0,31.34a12.91,12.91,0,0,1-1,3.35,9.67,9.67,0,0,0-.64,2.27c-.08,2.46,0,4.92,0,7.17a28.49,28.49,0,0,0,3.69,2.05c.82.32,2.31.62,2.63.21,1.75-2.13,4-1.27,6.11-1.41a27.4,27.4,0,0,1,4.53,0c3.93.44,7.48,1.5,8.86,5.89a11.35,11.35,0,0,0,1.54,2.29c2.38,3.82,1.91,8.09,1.59,12.2-.2,2.55-2.41,4.13-4.67,5a3.46,3.46,0,0,0-2.08,2.07c-.87,1.73-2.16,3.78-3.78,4.46-2,.84-4.07,1.85-6.1,2.61-3.59,1.36-7.11,1-10.64,1.51-2.13.3-4.12,1.49-6.66,2.46,0,1-.11,2.44-.18,3.91s.19,2.91-1.19,4.15c-.64.58-.6,2-.63,3.09-.08,2.75,0,5.5,0,8.25a13.63,13.63,0,0,1-1,4.2c-.86,2.44-.55,5.28-.7,7.51a63.28,63.28,0,0,0,6.1,2.4,4.2,4.2,0,0,0,2.62-.48c2.62-1.21,5-2.65,8.14-2.85s6.34-1.61,9.42-2.71c1.66-.6,3.16-.89,4.65.15a4.35,4.35,0,0,0,5.59,0c.52-.38,1.41-.79,1.87-.59,2.88,1.25,6.39.72,8.81,3.24,1.78,1.85,3.75,3.51,5.48,5.4,1.91,2.08,4.88,3.63,4.15,7.25,2.44,2.33,1.32,5.34,1.53,8.09.32,4.13-1.72,7.11-4.29,10.19a22.83,22.83,0,0,1-11.73,7.7c-4.29,1.06-7.52,4.74-12.18,4.37-2.43,3-6.88.06-9.25,3.2-4.82,0-9.25,2.81-14.24,1.88-1-.19-2.21.65-3.34.94a13.46,13.46,0,0,1-3.11.6c-4.81.07-9.62.09-14.43,0-2.36,0-4.94.77-6.93-1.4-.28-.3-1.07-.27-1.59-.19a6.3,6.3,0,0,1-6.53-3,4.78,4.78,0,0,0-2.47-2,5,5,0,0,1-4.07-3.91c-.19-.66-1.22-1.2-2-1.53-1.93-.83-3.08-2.08-3.07-4.3,0-6.73-.12-13.47.1-20.2a9.08,9.08,0,0,1,1.93-5.5c1.45-1.59,1.36-3.15,1.39-4.87,0-2.2.12-4.41,0-6.59-.09-1.13-.9-2.2-1-3.33-.26-3.08-.76-6.25-.25-9.22C1635.36,592.08,1637.87,591.21,1639.61,590Z"/><path class="ae20daa0-bb8d-4a2f-9d2b-e75ae74716d4" d="M1023.7,287.71c1.17,1.21,1.9,2.39.19,4.55-1,1.31-.64,3.94-.5,6a6.14,6.14,0,0,1-1.93,5c-1.65,1.72-2.28,3.93-.94,5.34s1.13,3,1.14,4.56c.06,6.32,0,12.64.06,19,0,2.35-.8,4.94,1.43,6.91.3.26.14,1.05.18,1.6.37,5.43,3,9.82,6.74,13.51,1.84,1.81,4,3.84,6.38,4.42s5.39,1.24,8.17-.81c1.46-1.08,3-1.5,3.71-3.57.83-2.38,3.4-2.38,5.87-2.26.22-4.2,4.1-5.49,6-8.32a23.75,23.75,0,0,1,3.1-3.08c2.74-2.73,4.85-2.95,8.57-1.07a4.37,4.37,0,0,0,2.71.5c2.56-.63,4.28,1.32,6.35,2,1.1.37,1.7,2.43,2.37,3.8.73,1.54,1,3.33,2,4.72,3.14,4.73,1.34,8.89-.77,13.39a67.4,67.4,0,0,1-6.43,11c-2.73,3.7-5.81,7.53-10.43,9.64-2.27,1-4.31,2.83-6.41,4.32-2.63,1.85-5,3.9-8.45,4.06a3.12,3.12,0,0,0-1.76.84c-1.11,1-2.1,1.13-3.22.06-1.74-1.68-3.08-1-4.35.69a5.14,5.14,0,0,1-5,2,36.32,36.32,0,0,0-6.17,0c-4.58.39-8.57-1.26-12.54-3.2-1.89-.92-4-.87-6.08-1.84a7,7,0,0,1-4.13-5.3l-2.41,1.2c-2.15-1.86-5.07-3.47-4.19-7.24-3.89-1.92-6.86-4.43-8.67-8.44-.94-2.08-3-3.53-3.8-5.94-1-3.18-2.65-6.17-3.93-9.28-.13-.31.39-.86.54-1.32.2-.64.66-1.42.47-1.93-1.24-3.32-1.06-7-2.73-10.2-.3-.57-.77-1.29-.64-1.8.79-3-1-5.37-2.21-7.56a10.32,10.32,0,0,1-1.28-5.37c0-4.26,0-8.52,0-12.77,0-1.86,0-3.58,1.14-5.44.95-1.53.37-4,.5-6,.1-1.57-.6-3.42,1.57-4.14-2-3.42-2.26-6.55-.6-10.05.81-1.72.75-3.94.75-5.94s.14-4.05,2.08-5.4c.53-.37,1.23-.92,1.3-1.45.48-4,2.69-7.56,2-11.79-.55-3.49,1.56-6.5,2.64-9.68.21-.62.72-1.29.62-1.85-.38-2.09,1.17-3.18,2.1-4.6a31.17,31.17,0,0,0,4.8-10.15,45.44,45.44,0,0,1,2.06-6.73c1.84-4.59,3.35-9.35,6.34-13.4-.31-3.59,2.2-5.53,4.36-7.75a4.36,4.36,0,0,0,1-2.48,4.6,4.6,0,0,1,1.37-3.2c1.92-1.93,4.49-3.65,3.92-7.08-.07-.4.87-.9,1.23-1.43.73-1.07,1.37-2.2,2.09-3.27.35-.51.77-1.27,1.24-1.33,2.8-.41,3.73-2.92,5.54-4.45l-1.59-2.54c2.19-1.94,4.49-4,6.84-6a4.08,4.08,0,0,1,1.62-.91,4.66,4.66,0,0,0,3.53-3.37,5.11,5.11,0,0,1,1.7-2.55,87.24,87.24,0,0,1,10.19-6c3.42-1.59,6.86-3.28,10.76-3.7,1.34-.14,2.57-1.2,3.92-1.6,3.12-.92,5.79.73,8.38,2,2.22,1.07,4.08,2.88,6.16,4.26,4.19,2.78,5.44,7.62,8.08,11.48a4.08,4.08,0,0,1,.34,2c.11,1.75-.19,3.5,1.25,5,.53.56.39,1.83.41,2.78a76.69,76.69,0,0,1-.06,9.47,57.49,57.49,0,0,1-2.09,8.88c-.45,1.62-1.23,3.15-2.08,5.28a3.66,3.66,0,0,0-2.88,2.92c-.65,2.83-5.79,3.44-8.14,1.45a20.21,20.21,0,0,1-6.75-9.7,6.17,6.17,0,0,0-1.11-1.69c.48-1.45.9-2.75,1.34-4.09-4-.93-7.38.69-9,3.8-1.32,2.54-2.51,5.26-4.34,7.41a32.23,32.23,0,0,0-4.3,7.41c-.17.36-.22.92-.48,1.06-2.4,1.19-2.85,3.77-4.12,5.74-1.77,2.74-3.33,5.62-5,8.45a4.72,4.72,0,0,0-.71,1.37c-.79,4.53-3.28,8.5-4.52,12.74-1.14,3.93-4,7.22-4,11.47-2.68,2.62-1.15,6.56-3.23,9.63-1.58,2.35-1.27,5.91-2.1,8.85S1024.8,284.69,1023.7,287.71Z"/><path class="ae20daa0-bb8d-4a2f-9d2b-e75ae74716d4" d="M1350,503c-2.2-2.83-2.38-6-.09-8,4.2-3.73,6.59-8.54,9-13.45.47-1,1.91-1.49,3.2-2.43-.4-2.78,1.17-5,3.52-6.84.43-.34,1.06-.68,1.16-1.12.75-3.24,1.4-6.51,2.13-10-1.57-.08-2.79-.12-4-.2a13.1,13.1,0,0,1-4.94-1.12,9.19,9.19,0,0,0-8.53.37c-1.15.66-3,.27-4.5.09-1-.11-1.88-.9-2.87-1a13.93,13.93,0,0,1-4.92-1.32c-1.64-.85-4.35-.47-6.26.25-3,1.13-7.67,1.46-10.33,0a3.49,3.49,0,0,0-1.85-.65c-2,.21-3.35-.85-4.55-2.23-.27-.31-.53-.82-.84-.86-3.41-.43-3.43-3.59-4.7-5.73-.27-.45-.31-1-.6-1.47-2.39-3.55-1-5.09,2.3-6.69.47-.22,1.3-.28,1.4-.61,1.37-4.14,4.75-4.43,8.3-4.51.66,0,1.6-.08,1.91-.49,1.12-1.49,2.66-1.07,4.12-1.25,2.35-.3,5,1,7-1.18,3.25,1.23,6.17-1.24,9.49-.73s7.23-.8,10.19.39c3.62,1.46,7.15,1.05,10.68,1.68,2.5.45,4.8,1.95,7.26,2.75,2.12.69,4.25,1.2,6.35,2.1,5.75,2.49,10.88,5.72,14.93,10.53,2.06,2.44,3.09,5.38,4.3,8.35,1.53,3.76,1.35,7.4,1.33,11.14a19.65,19.65,0,0,1-1.1,4.59c-.11.39-.46.8-.38,1.13.78,3.42-1.2,6.38-2.22,9.23s-1.43,6.06-3.08,8.78c-1.55,2.55-2.8,5.3-4.16,8-2.59,5.1-5.24,10.18-7.72,15.33a45.52,45.52,0,0,0-3.71,10.8c-.51,2.48-2.06,4.73-3,7.14a21.3,21.3,0,0,0-.35,2.82c-.29,1.26-.73,2.49-1.12,3.73a7.21,7.21,0,0,0-.44,1.1c-.27,2.34.5,4.93-1.72,6.77,1.07,4.57-2.43,8.5-1.84,13a7.32,7.32,0,0,1-.53,2.74,29,29,0,0,0-1,3.29c-.22,1.43.31,3-1.32,4a1.48,1.48,0,0,0-.38,1.12c.11,4.25-2.33,7.82-3.15,11.73-1,4.65-3.79,8.65-4.14,13.45-.05.68-.78,1.31-1.29,2.11l4.38,2.06c.85-.4,1.83-1.26,2.72-1.18,3.32.3,5.89-1.31,8.53-2.86.57-.33,1.29-.81,1.84-.71,3.66.69,6.93-.95,10.21-1.92a15,15,0,0,0,7.5-4.9c1.28-1.61,2.84-3.1,4.81-.48.32.43,1.52.2,2.49.29l1.2-3.39c3.16.68,6.61-1.37,9.67,1.17a3.6,3.6,0,0,0,1.09.49c6.55,2.17,11,6.86,13.83,12.82,1,2.14.23,5.13.4,7.73.3,4.37-1.22,8.33-4.81,10.37-4.56,2.57-7.55,7.19-13,8.71-4.14,1.16-7.81,3.94-11.71,5.94a4.14,4.14,0,0,1-2.29.54c-3.57-.54-6.34,1.4-9.45,2.54s-6,2.85-9.49,2.74c-1.71,0-3.55-.44-4.86,1.41-.32.46-1.54.32-2.35.38-3.6.28-7.18-.45-10.77,1.41-2,1-4.85.18-7.32.26-1.84.06-3.79-.48-5.34,1.32-.46.54-1.8.41-2.74.41-5.22,0-10.44-.06-15.66,0-2.57.06-3.75-1.18-4.82-3.38s-1-5.18-4.31-5.51c-.58-2.73-3.78-3.95-4.2-6.42s-1.22-5.16,1.08-7.37c.47-.46.43-1.54.47-2.34.07-1.51,0-3,0-4.53,0-5.71,0-5.71,3.21-10.81-1.55-2-2-3.94-.36-6.23a3.1,3.1,0,0,0,0-2.93,2.86,2.86,0,0,1,0-4c.78-1.12.76-2.8,1.14-4.42l2.72-.76c.82-2.39,1.67-4.86,2.68-7.77l2.55-.89a12,12,0,0,0,.17-2.94c-.59-3.16.85-5.84,2.25-8.32,1.66-2.92,3.38-5.66,2.89-9.2-.07-.54-.19-1.26.08-1.62,2.64-3.56,1.29-7.64,1.52-11.49a9.15,9.15,0,0,1,4.18-7.34c.85-.63,1.23-2,1.69-3,1-2.37,2-4.76,2.9-7.19a3,3,0,0,0-.09-2.4c-3.34-3.86.6-6.07,1.87-8.88,1.52-3.4,5.3-5.61,5.17-9.93C1348.49,504.48,1349.35,503.84,1350,503Z"/><path class="ae20daa0-bb8d-4a2f-9d2b-e75ae74716d4" d="M1262.5,166.69c-1.94-1.69-1.77-3.59-.26-5.52s3.42-3.83,4.71-6.3c2.5-4.81,6.57-5,11.09-1,2.74,2.39,5.92,4.69,7.62,7.75,1.57,2.84,5.08,4.9,4.47,8.91-.07.44,1,1,1.16,1.54.62,2.56.66-2.34.13.62-.39,2.14,2.3,3.49,1.77,6-.41,1.91-.48,4.06,1.35,5.71.46.41.31,1.57.31,2.38q0,20,0,40a11.63,11.63,0,0,1-.58,2.75,20.42,20.42,0,0,0-1.11,4.15c-.15,4.25,0,8.52-.08,12.78,0,2.23.61,4.6-1.41,6.54-.51.5-.29,1.84-.29,2.79,0,5.5.06,11,0,16.49,0,2.21.77,4.59-1.35,6.55-.58.53-.1,2.12-.29,3.18-.23,1.23-.66,2.42-1.16,4.16,1.65.93,1.18,2.85,1.18,4.58q0,23.09,0,46.17V341l6.76,1.89.79-2.35a24,24,0,0,0,3.55,1.06,34.16,34.16,0,0,0,4.33,0c.26-4.22,2.69-5.47,6.35-5.12.65.07,1.64,0,2-.36,1.26-1.61,3-1.15,4.55-1.26.82-.06,2.13.09,2.36-.32,1.24-2.24,2.45.57,3.24,0,1.15-.87,1.56-.83,3-.1,1.64.87,4,.64,6,.41,3.33-.39,6,1.12,8.75,2.45.57.28,1.11.9,1.68.91,4,.08,5.44,2.67,7.07,5.86a27.35,27.35,0,0,1,3.07,15.38,13.38,13.38,0,0,1-1.54,3.93c-1.71,3.81-2.91,8.07-7.85,9.1-3.37,4.26-9,4.87-13,8.07-1.52,1.21-3.5.11-5.3,1.49s-4.84,1.74-7.37,2.31c-1.64.37-3.59-.51-4.82,1.43-.2.31-1,.27-1.56.3-2.65.13-5.29-.31-7.77,1.48-1,.72-2.94.17-4.45.18-2.06,0-4.12,0-6.18,0-.69,0-1.57-.24-2,.09-4.08,2.88-8.69,1.17-13,1.61-.82.09-1.67-.12-2.47,0-5.24,1-9.52-1.65-14-3.5-.13-.05-.35-.07-.37-.13-.91-4.32-7.18-4.09-7.58-8.93,0-.41-1.24-.76-1.93-1.09-2-.94-3.24-2.26-3.16-4.69.12-3.7,0-7.42.08-11.12a9.31,9.31,0,0,1,.94-2.95,8.18,8.18,0,0,0-.1-7.05c-1.38-2.67-1.62-4,.75-5.56,4.25-2.84,3.72-6.83,3.61-10.86a3.61,3.61,0,0,0-.65-2.27c-.79-.79-.58-1.08,0-1.94,1.29-2,1.21-4.09-.6-5.58.46-1.29,1.27-2.49,1.23-3.66-.11-3,1.09-6.29-1.53-9-.51-.52-.23-1.86-.23-2.81,0-3.58,0-7.15,0-10.72,0-1.6-.29-3.2,1.26-4.53.49-.42.36-2.11-.06-2.94-1.72-3.46-1.66-6.85.24-10.9A8,8,0,0,0,1254,276c0-4.8,0-9.61,0-14.69,3.56,0,3.88-3.15,5-5.29.66-1.27.3-3-1.18-4.37-2.79-2.68-2.83-4.91-1.06-8.3a6.68,6.68,0,0,0,.64-2.68,39.84,39.84,0,0,0,0-6.18c-.41-3.68.82-6.84,2.66-9.84a4.46,4.46,0,0,0-.07-5.22,7.92,7.92,0,0,1-.3-7.77,11.93,11.93,0,0,0,1.11-5.4,29.78,29.78,0,0,0,0-4.53c-.24-2.44.25-4.52,2.36-6,.32-.23.83-.53.84-.81.07-3.89.92-7.75-.54-11.66-1.07-2.88-2.74-5.65-2.63-8.91,0-.68-.18-1.67.19-2"/><path class="ae20daa0-bb8d-4a2f-9d2b-e75ae74716d4" d="M1444,597.41l-1.27-5.2,3.66-1.21c0-1.57,0-3.07,0-4.56.05-1.31-.41-2.81,1.16-3.66a.91.91,0,0,0,.38-.7c-.46-3.84,1.19-7.32,1.84-11,.37-2.06-.29-4.18,1.4-6.14.66-.76.25-3-.39-4.2-1.36-2.52-1.54-4.75.08-7.17a5.12,5.12,0,0,0,.58-2.3c.3-3-.51-6,1.48-9,1-1.44.19-4,.27-6.07.08-1.85-.51-3.82,1.33-5.33.46-.38.35-1.55.36-2.36a65.26,65.26,0,0,1,.07-7c.45-3.47-.86-6.37-2.61-9.07-1-1.59-1.06-2.41.4-3.7,1.71-1.49,3.64-3.3.72-5.55,0-2.43-.49-5.06.25-7.25,1.27-3.75,1.69-6.07.16-9.49a6.07,6.07,0,0,1-.33-.62c2.85-2.41-.32-7.22,3.74-9.29.72-.36.87-2.12,1-3.27.36-2.73-.87-5.75,1.68-8.08.37-.34.23-1.32.19-2-.21-3,.86-5.12,2.58-7.69s3.51-4.11,5.92-4.52c3.85-.66,7.87-.5,11.33,1.92a4.22,4.22,0,0,1,1.66,1.78,51.34,51.34,0,0,1,2.22,7.93c.56,3.4-.86,7.08,1.71,10.22.48.59.07,1.88.15,2.83.2,2.36-.71,4.89,1.43,7,.5.49.2,1.85.2,2.8,0,4.4-.06,8.8,0,13.2,0,2.09-.7,4.34,1.38,6.12.51.44.29,1.82.29,2.77,0,14.7,0,29.41,0,44.12,0,1.24-.69,2.48-1,3.74a14.82,14.82,0,0,0-.63,3.14c-.08,3.15,0,6.32-.05,9.48,0,1.71.37,3.46-1.16,5-.61.6-.36,2.07-.47,3.15-.24,2.62.75,5.42-1.57,7.75-.57.57-.14,2.12-.22,3.21-.11,1.7.57,3.64-1.46,4.77a.87.87,0,0,0-.26.75c.67,4.69-1.53,9-1.73,13.57s-.1,9.34,0,14c0,2.25-.68,4.71,1.4,6.55.46,5.56,1,11.14-3.39,15.66a.93.93,0,0,0-.25.31c-1.11,2.8-3.59,4.15-5.93,5.65-4.08,2.61-8.16,5.92-13.29,4.67-3.49-.86-7.67-1.07-9.88-4.84-.64-1.1-1.18-2.27-1.82-3.38-1.63-2.83-3.39-5.6-4.92-8.49a18.42,18.42,0,0,1-2.33-5.76c-.77-5.53-3.69-10.88-2.22-16.59a24.37,24.37,0,0,1,3.89-8.12,7.59,7.59,0,0,0,1.29-4.07C1443.18,600.45,1443.59,599.1,1444,597.41Z"/><path class="ae20daa0-bb8d-4a2f-9d2b-e75ae74716d4" d="M1555.7,287v2.37l-.68.09-.36-2.39Z"/><path class="a1f59a71-8943-4847-867d-133f50126f0b" d="M638.81,417.26c.05-4.25.1-8.49.1-12.74,0-2.67-.06-5.35-.1-8a2.16,2.16,0,0,0,0-.51c-.86-3.36-.67-6.87-1.11-10.29a20.09,20.09,0,0,1-.13-2.33,18.79,18.79,0,0,0-.72-5.88,6.56,6.56,0,0,1-.18-2,33.43,33.43,0,0,0-1.11-10.51,5.93,5.93,0,0,1-.2-1.79,82.57,82.57,0,0,0-1.13-12.37c-.29-2.31-.32-4.68-.77-6.94a64,64,0,0,1-.92-9.26,44.87,44.87,0,0,0-.59-4.62,13,13,0,0,1,0-5.81,9,9,0,0,1-1-5,14.87,14.87,0,0,0-.38-3.34,84.72,84.72,0,0,1-1.51-11c-.4-3.78-.73-7.57-1-11.35-.14-1.64-.22-3.28-.27-4.92a41.65,41.65,0,0,0-.49-7.23,14.63,14.63,0,0,1-.07-3.11,14.39,14.39,0,0,0-.68-5.59c-.81-2.16-.74-4.57-1.05-6.88a18,18,0,0,0-.2-1.8,57.82,57.82,0,0,1-1.16-10,16,16,0,0,0-.18-2.32,35.17,35.17,0,0,1-.83-6.65,22,22,0,0,0-.93-4.8,78.53,78.53,0,0,1-1.89-8.26c-.27-1.87-.69-3.69-.78-5.6a11.92,11.92,0,0,0-.72-3.52c-1.39-3.73-2.22-7.71-4-11.24a26,26,0,0,1-1.11-3.11c-.33-.94-.42-2-1.44-2.49-.32-.15-.56-.8-.66-1.27-.45-2-.89-4-1.23-6.06-.19-1.18-.2-2.4-.3-3.74-.63-.22-1.26-.42-1.88-.65-2.52-1-3.7-2.62-3.79-5.7a2.83,2.83,0,0,0-1.34-2.72,3.37,3.37,0,0,1-1.41-1.91c-.75-1.88-1.56-3.74-2.46-5.53a5.73,5.73,0,0,0-1.65-2.06c-2-1.45-4.14-2.78-6.25-4.08a6.82,6.82,0,0,0-2.12-.8,19.39,19.39,0,0,1-4.46-1.61,6.88,6.88,0,0,0-5.07-.05,10,10,0,0,0-1.28.5,3,3,0,0,1-2.82-.05,4.68,4.68,0,0,0-3.28-.44,29.86,29.86,0,0,1-3.13.3,2.74,2.74,0,0,1-2.33-.65,1.9,1.9,0,0,0-1-.46c-3.1-.49-6.15-1.45-9.33-1.24a25.36,25.36,0,0,1-3.59-.09,18,18,0,0,1-3.1-.48,25.94,25.94,0,0,1-2.92-1.14,7.84,7.84,0,0,1-5.11.53,12.6,12.6,0,0,0-4.24.08,36.13,36.13,0,0,1-10.28,0c-5.71-.83-11.43-1.65-17.21-1.33-1.42.08-2.84.07-4.26.1a12.12,12.12,0,0,0-4.83.8c-2.43,1.06-5,.78-7.5.13a23.91,23.91,0,0,0-7.81-.53,31.15,31.15,0,0,1-10-.68,12.56,12.56,0,0,0-6.24.07,3.23,3.23,0,0,1-3-.53,6.86,6.86,0,0,0-4.92-1.35c-3.9.29-7.76-.37-11.62-.86a7.65,7.65,0,0,0-4.4.56,4.47,4.47,0,0,1-2.61.55,4.36,4.36,0,0,1-3.5-2h-.45a4.39,4.39,0,0,1-2.91,1.16,25.62,25.62,0,0,1-7.82.21,25.83,25.83,0,0,0-7.6-.11,53.09,53.09,0,0,1-8.71.44,28.6,28.6,0,0,0-6.44.86c-2.27.53-4.58.81-6.86,1.23a13.25,13.25,0,0,0-2.4.63,10.74,10.74,0,0,1-3.91,1,4.62,4.62,0,0,0-1.91.67,7.69,7.69,0,0,1-3.71.76,29.19,29.19,0,0,0-4.46.38,12.81,12.81,0,0,1-5.12-.13,10.06,10.06,0,0,0-3.1,0c-1.2.07-2.39.36-3.57.32A43.25,43.25,0,0,0,360,170.18a51.79,51.79,0,0,1-12.7,1.34,15.56,15.56,0,0,1-2.86-.49,10,10,0,0,0-3.09-.18,36.52,36.52,0,0,1-7.61,0c-5.13-.71-10.26-1.15-15.41-1.4-3.44-.17-6.86-.57-10.29-.8-2-.13-4-.21-6.06-.18a34.26,34.26,0,0,1-7.12-.83,11.12,11.12,0,0,0-6,.15,7,7,0,0,1-3.33,0,20.31,20.31,0,0,0-2.67-.34,62.28,62.28,0,0,1-8.92-.91,35.3,35.3,0,0,0-9.41,0,50,50,0,0,1-9.86,0c-1.64-.11-3.26-.36-4.9-.54a1.09,1.09,0,0,0-.44,0c-2.6.75-5.2.24-7.81.08a31.21,31.21,0,0,0-3.35,0c-1,0-2.09.16-3.13.23a40.15,40.15,0,0,0-13.37,3,13,13,0,0,1-6.36,1.23,6.17,6.17,0,0,0-3.28.57,6,6,0,0,1-2.42.35,21.67,21.67,0,0,0-7.31,1.07c-.86.31-1.71.64-2.55,1-1.61.68-3.2,1.43-4.83,2.08a14.32,14.32,0,0,0-4.93,3,12.86,12.86,0,0,1-1.69,1.27,69.79,69.79,0,0,0-8.59,7.51,4.51,4.51,0,0,0-1.06,1.32,23.21,23.21,0,0,1-3.21,4.66A33.08,33.08,0,0,0,171.8,199a8.81,8.81,0,0,1-2.18,2.92,7.54,7.54,0,0,0-2.16,3.26,9.78,9.78,0,0,1-1,2,8.86,8.86,0,0,0-1.49,4.27,13.83,13.83,0,0,1-1.38,4.61,29.81,29.81,0,0,0-1.82,5.55,21.75,21.75,0,0,1-3.61,8.26,17.15,17.15,0,0,0-2.8,6.44,12.7,12.7,0,0,1-1,2.88,66,66,0,0,0-5.53,17.48c-.71,3.8-1.36,7.62-2,11.43-.12.68-.17,1.37-.3,2.05-.39,2.09-.17,4.34-1.15,6.29a1.6,1.6,0,0,0-.11.76,24.74,24.74,0,0,1-.71,5.63c-.05.34-.15.68-.17,1-.17,4.14-.45,8.29-.47,12.43,0,2.76.33,5.52.54,8.28a91,91,0,0,1,0,15c-.22,2.41-.26,4.84-.25,7.26,0,2.86.07,5.72.23,8.57a211.53,211.53,0,0,1,0,25.18c-.05.95-.05,1.91-.07,2.86-.05,3.37-.08,6.75-.16,10.12a9.71,9.71,0,0,1-.3,2.29,21,21,0,0,0-.56,4.61c-.09,2.16-.21,4.33-.49,6.46a51,51,0,0,0-.34,7.51,70,70,0,0,1-.76,11.12,8.76,8.76,0,0,0-.1,1c-.17,6-.42,11.94-.46,17.91a70.78,70.78,0,0,0,.57,9.32c.58,4.58.25,9.15.26,13.73a4.54,4.54,0,0,1-.28,1.51,12.12,12.12,0,0,0-.56,4.33c0,2.51-.05,5-.06,7.53a23.55,23.55,0,0,0,.37,5.68,9.42,9.42,0,0,1,.11,2.32q-.23,14-.51,28.06a8.83,8.83,0,0,1-.46,2.5c-.14.41-.63.67-1,1V501c.3.24.76.41.86.73a11.59,11.59,0,0,1,.55,2.74c.09,1.47,0,2.95,0,4.42,0,1.11.2,2.22.29,3.34s.22,2.24.21,3.35c0,4.07-.15,8.14-.19,12.21,0,1.38.07,2.76.12,4.14.12,2.85.27,5.69.35,8.54.1,3.29,0,6.59.21,9.87.23,3.79.68,7.56,1,11.34.22,2.15.45,4.29.64,6.43.24,2.75.34,5.51.63,8.23a59.08,59.08,0,0,1,.33,5.93,75.76,75.76,0,0,0,.37,10.11,11.88,11.88,0,0,1,.14,2.85c-.34,3.49.72,6.6,1.67,9.8a82.31,82.31,0,0,1,2.24,9.49c.86,4.92,2.6,9.18,5.84,12.57.67.69,1.3,1.43,1.93,2.17a8.26,8.26,0,0,0,2.91,2.37,3.61,3.61,0,0,1,1.61,1.31,12.47,12.47,0,0,0,4.85,4.47c2.07,1.19,4.08,2.53,6.41,3a11,11,0,0,0,4,0,28.41,28.41,0,0,1,3.56-.35,12.43,12.43,0,0,0,3.77-.4c1.4-.49,2.78.38,4.18.6A10.52,10.52,0,0,1,190,642.9a7.06,7.06,0,0,0,2.38,3.63,5.48,5.48,0,0,1,1.14,1.58,11.78,11.78,0,0,0,3.14,3.66,26.58,26.58,0,0,0,8.94,4.69c1.38.35,2.79.55,4.19.78a42.52,42.52,0,0,1,4.22.64,25.19,25.19,0,0,0,5.79.59c1.72,0,3.44.14,5.16.08a17.8,17.8,0,0,0,3.77-.5,4.41,4.41,0,0,1,2.85.08c1.2.47,2.42.9,3.62,1.38a7.57,7.57,0,0,0,5.09.27,43.83,43.83,0,0,1,13.12-1.46c1.87,0,3.74,0,5.61,0a77.65,77.65,0,0,1,11.18.89,27.93,27.93,0,0,0,4.48.16c2.39,0,4.78.17,7.15-.48a7.92,7.92,0,0,1,2-.06c3.29,0,6.58,0,9.87.1q4.26.13,8.51.49a4.61,4.61,0,0,1,3.15,1.14h3.59a11.88,11.88,0,0,1,6.26-1.7c4.48-.09,9,0,13.46.07a24.58,24.58,0,0,0,4-.12,32.73,32.73,0,0,1,5.6,0,3.5,3.5,0,0,1,1.32.23c1.41.63,2.64.09,3.84-.7a7.14,7.14,0,0,0,1.09-.9,3.56,3.56,0,0,1,2.66-1.16,6.25,6.25,0,0,0,1.78-.22,8.58,8.58,0,0,1,5.09,0,11.15,11.15,0,0,0,2.46.19c1.11.1,2.22.24,3.33.33a2.87,2.87,0,0,0,1.31-.06,13.56,13.56,0,0,1,4.87-.79c1.12,0,2.24-.06,3.36-.09l20-.52c1.49,0,3,0,4.49,0a15.22,15.22,0,0,0,3.55-.3,18.57,18.57,0,0,1,4-.2c2.55,0,5.09,0,7.63,0a25.52,25.52,0,0,0,4.69-.33,31.66,31.66,0,0,1,4.47-.15c3.74-.19,7.48-.25,11.2-.67s7.17-.32,10.76-.47c3.35-.14,6.7-.54,10.06-.83,2.31-1,4.73-.49,7.1-.62.75,0,1.5,0,2.25,0A37.42,37.42,0,0,0,470,650.26a10.75,10.75,0,0,1,4-.08,12.06,12.06,0,0,0,7.65-1.26,2,2,0,0,1,1.93-.21,8.3,8.3,0,0,0,3.76.46c1.87-.1,3.74-.16,5.61-.19a51.38,51.38,0,0,0,9.79-1.27,14.31,14.31,0,0,1,4-.35,17.23,17.23,0,0,0,7.29-1.11,6.33,6.33,0,0,1,2.19-.4q4.93,0,9.87.11c.9,0,1.78.25,2.68.33a17.32,17.32,0,0,0,6.88-.74,60.32,60.32,0,0,1,10.57-2.18c3.19-.42,6.42-.57,9.57.61a7,7,0,0,0,4,.1c1.18-.25,2.33-.61,3.51-.81a15.86,15.86,0,0,1,5.79-.11c2.45.48,4.91-.18,7.35-.57a23.78,23.78,0,0,1,3.56-.39,23,23,0,0,0,4.68-.5c4.89-1,9-5.52,10.13-11.18.26-1.34.41-2.7.61-4.06.89-.54,1.81-.24,2.69-.3a1.8,1.8,0,0,0,1.77-1.62c.12-.59.19-1.19.32-1.77.19-.83.4-1.66.64-2.47s.46-1.44.71-2.15a6.55,6.55,0,0,1,.57-1.38,50.8,50.8,0,0,0,4.36-8.46,19.81,19.81,0,0,1,3-5.1,13.17,13.17,0,0,0,1.88-3.5,18.84,18.84,0,0,0,.91-3.19,39.88,39.88,0,0,1,2.08-6.85,18,18,0,0,0,1.56-7.75,11.08,11.08,0,0,1,1-4.74,23.48,23.48,0,0,0,1.66-8.26,61.77,61.77,0,0,1,1-7.42,10.37,10.37,0,0,0,.05-4.86,4.33,4.33,0,0,1,.08-1.78c.24-1.44.5-2.88.8-4.31a13.89,13.89,0,0,0-.24-6.66,4.57,4.57,0,0,1-.06-3,6.86,6.86,0,0,0,.17-2c.15-4.41.24-8.83.43-13.24a35.67,35.67,0,0,1,1.74-9.35c.39-1.2.62-2.47.94-3.71a8.75,8.75,0,0,1,.46-1.45,21.81,21.81,0,0,0,1.45-4.88c.41-2,1-4,1.51-5.94.21-.82.39-1.65.57-2.48a6.67,6.67,0,0,1,.19-1,51.74,51.74,0,0,0,2.35-10.52c.49-3.14,1.22-6.24,1.73-9.38a62.23,62.23,0,0,0,.7-6.68,67.61,67.61,0,0,1,1.15-7.93c.85-5,1.78-10,2.64-15,.21-1.19.27-2.4.44-3.6a47.69,47.69,0,0,1,1-6.62,8.82,8.82,0,0,0,.16-2.58,38.51,38.51,0,0,1,.61-7.74,10,10,0,0,0,0-4.11,3.44,3.44,0,0,1,0-1.77A11.78,11.78,0,0,0,638.81,417.26Zm-395-77.1,0-.2.17.12Zm1.3,204.3-.14-.11.16-.06Zm78.34-90.29s-.29-.17-.3-.28a7,7,0,0,1,.31-1.2,4.09,4.09,0,0,1,.34,1A.93.93,0,0,1,323.45,454.17Zm8.45,58.45-.16-.32c.07,0,.15-.08.2-.06s.06.14.09.21ZM446.78,532l-.14-.1.16-.07Zm37.64-170.67a1.48,1.48,0,0,1-.25-.31s.05-.13.09-.21a3.88,3.88,0,0,0,.26.31A2,2,0,0,0,484.42,361.32Z"/><path class="b9a0fd98-8f0a-4f6e-9fa8-46d72a9e9a98" d="M488.22,478.41,473,494.13q-6.65,7-14.46,15.22t-13.08,14.2q-5.66,6.15-8.7,9.24a28.77,28.77,0,0,1-5.24,4.43,22.53,22.53,0,0,1-5.05,2.24,39.63,39.63,0,0,1-5.74,1.32c-1.1.12-1.86.19-2.27.21a31.24,31.24,0,0,1-5.62-.29q-12.94-1.26-13.39-7t-.46-5.95q-.66-11.34,9.88-40.3,2.49-6.94,3.88-11.66a49.42,49.42,0,0,0,1.36-5.09c-.56,0-3.88,3.07-9.95,9.11S391,493,383.06,501.3,368,517.18,361.77,524.06q-5.46,6.13-10.75,11.43a103.34,103.34,0,0,1-7.87,7.31,32.54,32.54,0,0,1-19.29,7.39,42.44,42.44,0,0,1-6.66-.24q-14.42-1.58-15.26-15.94a46.38,46.38,0,0,1,.81-10.84q3.64-19.14,15-41.69t20.67-29.64q3.39-2.25,10.43-2.6l2.08-.11q12.4-.6,12.79,5.63.06,1.14-1.81,6.44t-4.8,11.9q-9.72,21.7-15,37.52l-.17.57c0,.26.09.38.23.37a2.65,2.65,0,0,0,1.21-.62,90.55,90.55,0,0,0,7.59-6.83q5.6-5.39,15.77-15.94,41.13-41.84,52.15-45.22a40.19,40.19,0,0,1,10.88-2.05c1.52-.07,3-.08,4.57,0q7.69.39,12.48,3.94a5.31,5.31,0,0,1,2.34,2.73A21,21,0,0,1,450,453q.79,13.41-12.35,47.62v.19c.41,0,1.28-.63,2.6-1.83q3-2.61,7.46-7.2,9.62-9.37,26.11-23.74t25.84-21.28m-11.42,31.66L473,494.13q-6.65,7-14.46,15.22t-13.08,14.2q-5.66,6.15-8.7,9.24a28.77,28.77,0,0,1-5.24,4.43,22.53,22.53,0,0,1-5.05,2.24,39.63,39.63,0,0,1-5.74,1.32c-1.1.12-1.86.19-2.27.21a31.24,31.24,0,0,1-5.62-.29q-12.94-1.26-13.39-7t-.46-5.95q-.66-11.34,9.88-40.3,2.49-6.94,3.88-11.66a49.42,49.42,0,0,0,1.36-5.09c-.56,0-3.88,3.07-9.95,9.11S391,493,383.06,501.3,368,517.18,361.77,524.06q-5.46,6.13-10.75,11.43a103.34,103.34,0,0,1-7.87,7.31,32.54,32.54,0,0,1-19.29,7.39,42.44,42.44,0,0,1-6.66-.24q-14.42-1.58-15.26-15.94a46.38,46.38,0,0,1,.81-10.84q3.64-19.14,15-41.69t20.67-29.64q3.39-2.25,10.43-2.6l2.08-.11q12.4-.6,12.79,5.63.06,1.14-1.81,6.44t-4.8,11.9q-9.72,21.7-15,37.52l-.17.57c0,.26.09.38.23.37a2.65,2.65,0,0,0,1.21-.62,90.55,90.55,0,0,0,7.59-6.83q5.6-5.39,15.77-15.94,41.13-41.84,52.15-45.22a40.19,40.19,0,0,1,10.88-2.05c1.52-.07,3-.08,4.57,0q7.69.39,12.48,3.94a5.31,5.31,0,0,1,2.34,2.73A21,21,0,0,1,450,453q.79,13.41-12.35,47.62v.19c.41,0,1.28-.63,2.6-1.83q3-2.61,7.46-7.2,9.62-9.37,26.11-23.74t25.84-21.28l-11.42,31.66"/><path class="ea745f85-e165-4571-98fb-edd420565001" d="M365.84,453.68q-1.45-5.35-17.12-4.58-4.53.22-7,.53a14.51,14.51,0,0,0-4,1l-.94.45a14,14,0,0,0-3.81,2.78l-.08.08a20.92,20.92,0,0,0-2.25,2.73c-4.74,6.82-11.11,15.5-15.92,20.45-1.35,1.4-5.33,5.66-5.33,5.66q-9.11,9.74-21.12,21.1t-20,17.54a6.62,6.62,0,0,1-.91.75c-4.35,3.37-7.32,5.58-8.89,6.66a8.53,8.53,0,0,1-3.31,1.65.82.82,0,0,1-.58-.15c-.41-.44-.66-1.54-.76-3.29l0-.35a52.33,52.33,0,0,1,4.05-24.34c5.8-14.13,9-19.41,16.26-27.71,7.32-8.53,13.5-12.66,19.54-13q8.68-.44,15.54,10.08l.59.83a2,2,0,0,0,2.93.22c4.95-5,6.67-9.17,5.76-12.88-2.53-10.17-13.32-13.24-26.94-13.15-2.4,0-14.25,0-30,7.83-6.5,3.51-16.68,12.34-21.08,17a89.79,89.79,0,0,0-19.39,30.32,54.49,54.49,0,0,0-3.55,13.71,47.12,47.12,0,0,0-.77,9.4,28.91,28.91,0,0,0,2.43,10l.09.18a24.91,24.91,0,0,0,12.46,11.46,37.17,37.17,0,0,0,16.37,2.94l2.07-.1a23,23,0,0,0,4.69-.76q16-4.11,34.71-18.53,3.81-3,7.15-5.7t4.62-3.65h0c1.18-.91,1.48-.21,1.25.71-1.13,4.44-2.54,10.66-.8,18.24a22.2,22.2,0,0,0,2.73,6c2.32,3.13,6.65,5.18,14.32,5.65a30.46,30.46,0,0,0,5.86,0,46.05,46.05,0,0,0,5.83-.81c3.93-1,8.74-4.1,10.59-5.43.72-.52-.07-1.71-.68-2.34l-1.36-1.41c-1.47-1.44-2.3-3.68-2.47-6.71a35.13,35.13,0,0,1,1-9.33q1.78-8.13,8.07-23.95t12.86-29.62q3.72-7.55,5.54-12.18c1.21-3.1,1.79-5,1.75-5.7Z"/><path class="b9a0fd98-8f0a-4f6e-9fa8-46d72a9e9a98" d="M560,465.52c1.89,1,2,2.2,1.56,5.68-1.18,8.09-30.33,64.53-39.19,76-8.27,10.81-17.67,17.66-24.69,18.4-4.84.57-14.37-2.25-18.66-5.53-5.7-4.5-7.13-15.77-4.4-35,2.53-18.53,19-70.3,24.23-77.59,2.34-2.52,7.34-3.86,10.71,1.64,3,4.93,1.17,7.78-10.14,55.64-7.1,30-4.91,44.68-4.4,46,1.21,2,5.52-1.58,15.26-13.16,8.39-9.57,17.22-22.62,32.22-48.3,14.91-25.31,14.91-25.31,18-24Z"/><path class="b9a0fd98-8f0a-4f6e-9fa8-46d72a9e9a98" d="M488.22,305.75,473,321.48q-6.65,7-14.46,15.22t-13.08,14.19q-5.66,6.17-8.7,9.24a28.77,28.77,0,0,1-5.24,4.43,22.09,22.09,0,0,1-5.05,2.24,41.55,41.55,0,0,1-5.74,1.33c-1.1.12-1.86.19-2.27.21a31.32,31.32,0,0,1-5.62-.3q-12.94-1.25-13.39-7t-.46-6q-.66-11.34,9.88-40.29,2.49-7,3.88-11.66a49.17,49.17,0,0,0,1.36-5.1q-.84,0-9.95,9.12t-21.05,21.51q-11.94,12.44-21.29,22.75-5.46,6.15-10.75,11.43a101.25,101.25,0,0,1-7.87,7.31,32.54,32.54,0,0,1-19.29,7.39,40.15,40.15,0,0,1-6.66-.24q-14.42-1.56-15.26-15.93a46.46,46.46,0,0,1,.81-10.85q3.64-19.12,15-41.68t20.67-29.65q3.39-2.25,10.43-2.6l2.08-.1q12.4-.62,12.79,5.63.06,1.13-1.81,6.44t-4.8,11.89q-9.72,21.72-15,37.52l-.17.58c0,.25.09.37.23.36a2.55,2.55,0,0,0,1.21-.62,89.78,89.78,0,0,0,7.59-6.82q5.6-5.4,15.77-15.94,41.13-41.83,52.15-45.22a39.81,39.81,0,0,1,10.88-2.05c1.52-.08,3-.09,4.57,0q7.69.39,12.48,3.93a5.37,5.37,0,0,1,2.34,2.74,20.85,20.85,0,0,1,.84,5.45q.79,13.43-12.35,47.63v.18c.41,0,1.28-.62,2.6-1.83q3-2.6,7.46-7.19,9.62-9.39,26.11-23.75t25.84-21.27m-11.42,31.65L473,321.48q-6.65,7-14.46,15.22t-13.08,14.19q-5.66,6.17-8.7,9.24a28.77,28.77,0,0,1-5.24,4.43,22.09,22.09,0,0,1-5.05,2.24,41.55,41.55,0,0,1-5.74,1.33c-1.1.12-1.86.19-2.27.21a31.32,31.32,0,0,1-5.62-.3q-12.94-1.25-13.39-7t-.46-6q-.66-11.34,9.88-40.29,2.49-7,3.88-11.66a49.17,49.17,0,0,0,1.36-5.1q-.84,0-9.95,9.12t-21.05,21.51q-11.94,12.44-21.29,22.75-5.46,6.15-10.75,11.43a101.25,101.25,0,0,1-7.87,7.31,32.54,32.54,0,0,1-19.29,7.39,40.15,40.15,0,0,1-6.66-.24q-14.42-1.56-15.26-15.93a46.46,46.46,0,0,1,.81-10.85q3.64-19.12,15-41.68t20.67-29.65q3.39-2.25,10.43-2.6l2.08-.1q12.4-.62,12.79,5.63.06,1.13-1.81,6.44t-4.8,11.89q-9.72,21.72-15,37.52l-.17.58c0,.25.09.37.23.36a2.55,2.55,0,0,0,1.21-.62,89.78,89.78,0,0,0,7.59-6.82q5.6-5.4,15.77-15.94,41.13-41.83,52.15-45.22a39.81,39.81,0,0,1,10.88-2.05c1.52-.08,3-.09,4.57,0q7.69.39,12.48,3.93a5.37,5.37,0,0,1,2.34,2.74,20.85,20.85,0,0,1,.84,5.45q.79,13.43-12.35,47.63v.18c.41,0,1.28-.62,2.6-1.83q3-2.6,7.46-7.19,9.62-9.39,26.11-23.75t25.84-21.27l-11.42,31.65"/><path class="ea745f85-e165-4571-98fb-edd420565001" d="M365.84,281q-1.45-5.36-17.12-4.57-4.53.23-7,.52a14.48,14.48,0,0,0-4,1c-.3.13-.62.28-.94.44a14.26,14.26,0,0,0-3.81,2.78l-.08.09a21.51,21.51,0,0,0-2.25,2.72c-4.74,6.83-11.11,15.5-15.92,20.46-1.35,1.4-5.33,5.65-5.33,5.65q-9.11,9.73-21.12,21.1t-20,17.55a6.6,6.6,0,0,1-.91.74q-6.53,5.06-8.89,6.66a8.76,8.76,0,0,1-3.31,1.66.82.82,0,0,1-.58-.15c-.41-.45-.66-1.55-.76-3.29l0-.35a52.29,52.29,0,0,1,4.05-24.34c5.8-14.13,9-19.41,16.26-27.71,7.32-8.54,13.5-12.67,19.54-13q8.68-.44,15.54,10.09l.59.83a2,2,0,0,0,2.93.22c4.95-5,6.67-9.18,5.76-12.88C316,277.08,305.17,274,291.55,274.11c-2.4,0-14.25,0-30,7.82-6.5,3.52-16.68,12.34-21.08,17a89.89,89.89,0,0,0-19.39,30.32A54.59,54.59,0,0,0,217.57,343a47.21,47.21,0,0,0-.77,9.41,28.86,28.86,0,0,0,2.43,9.94l.09.18a24.86,24.86,0,0,0,12.46,11.46,37.32,37.32,0,0,0,16.37,2.95l2.07-.11a22.29,22.29,0,0,0,4.69-.75q16-4.12,34.71-18.54,3.81-3,7.15-5.7c2.23-1.8,3.77-3,4.62-3.64h0c1.18-.92,1.48-.21,1.25.7-1.13,4.45-2.54,10.66-.8,18.25a22.34,22.34,0,0,0,2.73,6c2.32,3.13,6.65,5.17,14.32,5.65a31.48,31.48,0,0,0,5.86,0,47.94,47.94,0,0,0,5.83-.81c3.93-1,8.74-4.1,10.59-5.43.72-.53-.07-1.72-.68-2.35l-1.36-1.41c-1.47-1.44-2.3-3.67-2.47-6.7a35.13,35.13,0,0,1,1-9.33q1.78-8.14,8.07-24t12.86-29.62q3.72-7.53,5.54-12.18t1.75-5.69Z"/><path class="b9a0fd98-8f0a-4f6e-9fa8-46d72a9e9a98" d="M560,292.86c1.89,1,2,2.2,1.56,5.69-1.18,8.08-30.33,64.53-39.19,76-8.27,10.8-17.67,17.66-24.69,18.39-4.84.58-14.37-2.24-18.66-5.52-5.7-4.5-7.13-15.77-4.4-35.05,2.53-18.54,19-70.31,24.23-77.59,2.34-2.52,7.34-3.87,10.71,1.63,3,4.93,1.17,7.78-10.14,55.64-7.1,30-4.91,44.69-4.4,46,1.21,2,5.52-1.57,15.26-13.15,8.39-9.57,17.22-22.62,32.22-48.31,14.91-25.31,14.91-25.31,18-24Z"/></svg>